<svg width="300" height="525" viewBox="0 0 300 525" fill="none" xmlns="http://www.w3.org/2000/svg" role="img" aria-labelledby="descId">
        <title id="titleId"/>
        <desc id="descId"/>
        <style>
          .header {
            font: 600 18px 'Segoe UI', Ubuntu, Sans-Serif;
            fill: #2f80ed;
            animation: fadeInAnimation 0.8s ease-in-out forwards;
          }
          @supports(-moz-appearance: auto) {
            /* Selector detects Firefox */
            .header { font-size: 15.5px; }
          }
          
    @keyframes slideInAnimation {
      from {
        width: 0;
      }
      to {
        width: calc(100%-100px);
      }
    }
    @keyframes growWidthAnimation {
      from {
        width: 0;
      }
      to {
        width: 100%;
      }
    }
    .stat {
      font: 600 14px 'Segoe UI', Ubuntu, "Helvetica Neue", Sans-Serif; fill: #434d58;
    }
    @supports(-moz-appearance: auto) {
      /* Selector detects Firefox */
      .stat { font-size:12px; }
    }
    .bold { font-weight: 700 }
    .lang-name {
      font: 400 11px "Segoe UI", Ubuntu, Sans-Serif;
      fill: #434d58;
    }
    .stagger {
      opacity: 0;
      animation: fadeInAnimation 0.3s ease-in-out forwards;
    }
    #rect-mask rect{
      animation: slideInAnimation 1s ease-in-out forwards;
    }
    .lang-progress{
      animation: growWidthAnimation 0.6s ease-in-out forwards;
    }
    

          
      /* Animations */
      @keyframes scaleInAnimation {
        from {
          transform: translate(-5px, 5px) scale(0);
        }
        to {
          transform: translate(-5px, 5px) scale(1);
        }
      }
      @keyframes fadeInAnimation {
        from {
          opacity: 0;
        }
        to {
          opacity: 1;
        }
      }
    
          
        </style>

        

        <rect data-testid="card-bg" x="0.5" y="0.5" rx="4.5" height="99%" stroke="#e4e2e2" width="299" fill="#fffefe" stroke-opacity="1"/>

        
      <g data-testid="card-title" transform="translate(25, 35)">
        <g transform="translate(0, 0)">
      <text x="0" y="0" class="header" data-testid="header">Most Used Languages</text>
    </g>
      </g>
    

        <g data-testid="main-card-body" transform="translate(0, 55)">
          
    <svg data-testid="lang-items" x="25">
      <g transform="translate(0, 0)">
    <g class="stagger" style="animation-delay: 450ms">
      <text data-testid="lang-name" x="2" y="15" class="lang-name">UniversalToolKit</text>
      <text x="215" y="34" class="lang-name">35.55%</text>
      
    <svg width="205" x="0" y="25">
      <rect rx="5" ry="5" x="0" y="0" width="205" height="8" fill="#ddd"/>
      <svg data-testid="lang-progress" width="35.55%">
        <rect height="8" fill="#858585" rx="5" ry="5" x="0" y="0" class="lang-progress" style="animation-delay: 750ms;"/>
      </svg>
    </svg>
  
    </g>
  </g><g transform="translate(0, 40)">
    <g class="stagger" style="animation-delay: 600ms">
      <text data-testid="lang-name" x="2" y="15" class="lang-name">Plant_musical_instrument</text>
      <text x="215" y="34" class="lang-name">22.01%</text>
      
    <svg width="205" x="0" y="25">
      <rect rx="5" ry="5" x="0" y="0" width="205" height="8" fill="#ddd"/>
      <svg data-testid="lang-progress" width="22.01%">
        <rect height="8" fill="#858585" rx="5" ry="5" x="0" y="0" class="lang-progress" style="animation-delay: 900ms;"/>
      </svg>
    </svg>
  
    </g>
  </g><g transform="translate(0, 80)">
    <g class="stagger" style="animation-delay: 750ms">
      <text data-testid="lang-name" x="2" y="15" class="lang-name">BeanMusic</text>
      <text x="215" y="34" class="lang-name">16.12%</text>
      
    <svg width="205" x="0" y="25">
      <rect rx="5" ry="5" x="0" y="0" width="205" height="8" fill="#ddd"/>
      <svg data-testid="lang-progress" width="16.12%">
        <rect height="8" fill="#858585" rx="5" ry="5" x="0" y="0" class="lang-progress" style="animation-delay: 1050ms;"/>
      </svg>
    </svg>
  
    </g>
  </g><g transform="translate(0, 120)">
    <g class="stagger" style="animation-delay: 900ms">
      <text data-testid="lang-name" x="2" y="15" class="lang-name">TaskManager</text>
      <text x="215" y="34" class="lang-name">8.6%</text>
      
    <svg width="205" x="0" y="25">
      <rect rx="5" ry="5" x="0" y="0" width="205" height="8" fill="#ddd"/>
      <svg data-testid="lang-progress" width="8.6%">
        <rect height="8" fill="#858585" rx="5" ry="5" x="0" y="0" class="lang-progress" style="animation-delay: 1200ms;"/>
      </svg>
    </svg>
  
    </g>
  </g><g transform="translate(0, 160)">
    <g class="stagger" style="animation-delay: 1050ms">
      <text data-testid="lang-name" x="2" y="15" class="lang-name">sadamlibrary_android</text>
      <text x="215" y="34" class="lang-name">6.62%</text>
      
    <svg width="205" x="0" y="25">
      <rect rx="5" ry="5" x="0" y="0" width="205" height="8" fill="#ddd"/>
      <svg data-testid="lang-progress" width="6.62%">
        <rect height="8" fill="#858585" rx="5" ry="5" x="0" y="0" class="lang-progress" style="animation-delay: 1350ms;"/>
      </svg>
    </svg>
  
    </g>
  </g><g transform="translate(0, 200)">
    <g class="stagger" style="animation-delay: 1200ms">
      <text data-testid="lang-name" x="2" y="15" class="lang-name">App_JapanaseLearning</text>
      <text x="215" y="34" class="lang-name">5.16%</text>
      
    <svg width="205" x="0" y="25">
      <rect rx="5" ry="5" x="0" y="0" width="205" height="8" fill="#ddd"/>
      <svg data-testid="lang-progress" width="5.16%">
        <rect height="8" fill="#858585" rx="5" ry="5" x="0" y="0" class="lang-progress" style="animation-delay: 1500ms;"/>
      </svg>
    </svg>
  
    </g>
  </g><g transform="translate(0, 240)">
    <g class="stagger" style="animation-delay: 1350ms">
      <text data-testid="lang-name" x="2" y="15" class="lang-name">Japaneselearning</text>
      <text x="215" y="34" class="lang-name">4.24%</text>
      
    <svg width="205" x="0" y="25">
      <rect rx="5" ry="5" x="0" y="0" width="205" height="8" fill="#ddd"/>
      <svg data-testid="lang-progress" width="4.24%">
        <rect height="8" fill="#858585" rx="5" ry="5" x="0" y="0" class="lang-progress" style="animation-delay: 1650ms;"/>
      </svg>
    </svg>
  
    </g>
  </g><g transform="translate(0, 280)">
    <g class="stagger" style="animation-delay: 1500ms">
      <text data-testid="lang-name" x="2" y="15" class="lang-name">TTMS</text>
      <text x="215" y="34" class="lang-name">1.32%</text>
      
    <svg width="205" x="0" y="25">
      <rect rx="5" ry="5" x="0" y="0" width="205" height="8" fill="#ddd"/>
      <svg data-testid="lang-progress" width="2%">
        <rect height="8" fill="#858585" rx="5" ry="5" x="0" y="0" class="lang-progress" style="animation-delay: 1800ms;"/>
      </svg>
    </svg>
  
    </g>
  </g><g transform="translate(0, 320)">
    <g class="stagger" style="animation-delay: 1650ms">
      <text data-testid="lang-name" x="2" y="15" class="lang-name">sadamlibrary-release</text>
      <text x="215" y="34" class="lang-name">0.15%</text>
      
    <svg width="205" x="0" y="25">
      <rect rx="5" ry="5" x="0" y="0" width="205" height="8" fill="#ddd"/>
      <svg data-testid="lang-progress" width="2%">
        <rect height="8" fill="#858585" rx="5" ry="5" x="0" y="0" class="lang-progress" style="animation-delay: 1950ms;"/>
      </svg>
    </svg>
  
    </g>
  </g><g transform="translate(0, 360)">
    <g class="stagger" style="animation-delay: 1800ms">
      <text data-testid="lang-name" x="2" y="15" class="lang-name">sadam_libray_java</text>
      <text x="215" y="34" class="lang-name">0.13%</text>
      
    <svg width="205" x="0" y="25">
      <rect rx="5" ry="5" x="0" y="0" width="205" height="8" fill="#ddd"/>
      <svg data-testid="lang-progress" width="2%">
        <rect height="8" fill="#858585" rx="5" ry="5" x="0" y="0" class="lang-progress" style="animation-delay: 2100ms;"/>
      </svg>
    </svg>
  
    </g>
  </g><g transform="translate(0, 400)">
    <g class="stagger" style="animation-delay: 1950ms">
      <text data-testid="lang-name" x="2" y="15" class="lang-name">sadamlibrary_java_Module</text>
      <text x="215" y="34" class="lang-name">0.1%</text>
      
    <svg width="205" x="0" y="25">
      <rect rx="5" ry="5" x="0" y="0" width="205" height="8" fill="#ddd"/>
      <svg data-testid="lang-progress" width="2%">
        <rect height="8" fill="#858585" rx="5" ry="5" x="0" y="0" class="lang-progress" style="animation-delay: 2250ms;"/>
      </svg>
    </svg>
  
    </g>
  </g>
    </svg>
  
        </g>
      </svg>