<?xml version="1.0" encoding="UTF-8"?>
<svg xmlns="http://www.w3.org/2000/svg" xmlns:xlink="http://www.w3.org/1999/xlink" width="32" height="32" viewBox="0 0 32 32" version="1.1">
<g>
<path fill="#444444" style="stroke:none;fill-rule:nonzero;fill-opacity:1;" d="M 28.101562 7.683594 L 17.324219 1.625 C 16.507812 1.167969 15.492188 1.167969 14.675781 1.625 L 3.898438 7.683594 C 3.074219 8.144531 2.558594 9.011719 2.558594 9.941406 L 2.558594 22.058594 C 2.558594 22.988281 3.074219 23.855469 3.898438 24.316406 L 14.675781 30.375 C 15.085938 30.605469 15.542969 30.71875 16 30.71875 C 16.457031 30.71875 16.914062 30.605469 17.324219 30.375 L 28.101562 24.316406 C 28.925781 23.855469 29.441406 22.988281 29.441406 22.058594 L 29.441406 9.941406 C 29.441406 9.011719 28.925781 8.144531 28.101562 7.683594 Z M 16 23.679688 C 11.765625 23.679688 8.320312 20.234375 8.320312 16 C 8.320312 11.765625 11.765625 8.320312 16 8.320312 C 18.421875 8.320312 20.65625 9.441406 22.109375 11.355469 L 19.300781 12.976562 C 18.460938 12.054688 17.261719 11.519531 16 11.519531 C 13.53125 11.519531 11.519531 13.53125 11.519531 16 C 11.519531 18.46875 13.53125 20.480469 16 20.480469 C 17.261719 20.480469 18.460938 19.945312 19.300781 19.023438 L 22.109375 20.644531 C 20.65625 22.558594 18.421875 23.679688 16 23.679688 Z M 23.679688 16.640625 L 22.398438 16.640625 L 22.398438 17.921875 L 21.121094 17.921875 L 21.121094 16.640625 L 19.839844 16.640625 L 19.839844 15.359375 L 21.121094 15.359375 L 21.121094 14.078125 L 22.398438 14.078125 L 22.398438 15.359375 L 23.679688 15.359375 Z M 28.160156 16.640625 L 26.878906 16.640625 L 26.878906 17.921875 L 25.601562 17.921875 L 25.601562 16.640625 L 24.320312 16.640625 L 24.320312 15.359375 L 25.601562 15.359375 L 25.601562 14.078125 L 26.878906 14.078125 L 26.878906 15.359375 L 28.160156 15.359375 Z M 28.160156 16.640625 "/>
</g>
</svg>
