<?xml version="1.0" encoding="utf-8"?>
<!-- Generated by IcoMoon.io -->
<!DOCTYPE svg PUBLIC "-//W3C//DTD SVG 1.1//EN" "http://www.w3.org/Graphics/SVG/1.1/DTD/svg11.dtd">
<svg version="1.1" xmlns="http://www.w3.org/2000/svg" xmlns:xlink="http://www.w3.org/1999/xlink" width="32" height="32" viewBox="0 0 32 32">
<path fill="#444444" d="M16 5.047c-6.197 0-11.238 5.042-11.238 11.239s5.042 11.239 11.238 11.239c6.197 0 11.239-5.042 11.239-11.239s-5.042-11.239-11.239-11.239zM16 6.129c5.609 0 10.156 4.548 10.156 10.157 0 0.439-0.031 0.871-0.085 1.295-0.276 1.099-0.774 1.832-1.368 2.333-0.912 0.767-2.127 1.015-3.252 1.014-0.316 0.002-0.627-0.019-0.918-0.051 1.185-1.17 1.92-2.794 1.92-4.591h0c-0-3.564-2.889-6.452-6.453-6.452-0.924 0-1.802 0.196-2.597 0.546-0.1-0.069-0.202-0.135-0.31-0.197-0.445-0.25-1.373-0.616-2.554-0.62-0.855-0.008-1.834 0.209-2.793 0.81 1.843-2.567 4.852-4.242 8.254-4.242zM14.226 19.964c0.165-0.72 0.617-1.845 1.024-2.769 0.115-0.262 0.227-0.508 0.328-0.726 0.637 2.268 1.040 3.617 1.762 4.537 0.108 0.137 0.228 0.259 0.353 0.374-0.532 0.177-1.101 0.275-1.693 0.276-0.65-0.001-1.273-0.118-1.85-0.329-0.012-0.149-0.019-0.296-0.019-0.435-0.001-0.353 0.036-0.671 0.095-0.927zM12.852 20.631c-1.344-0.976-2.219-2.557-2.222-4.346 0.003-1.816 0.905-3.418 2.284-4.389 0.302 0.174 0.576 0.379 0.801 0.615 0.442 0.453 0.937 1.453 1.281 2.314 0.094 0.232 0.178 0.454 0.251 0.656-1.239 2.52-2.065 3.777-2.395 5.15zM16.876 17.407c-0.277-0.714-0.438-1.252-0.439-1.253s-0.001-0.001-0.001-0.002c-0.507-1.943-1.032-3.719-2.122-4.962 0.53-0.176 1.097-0.273 1.686-0.274 2.966 0.006 5.365 2.405 5.37 5.37h0c-0.003 1.779-0.868 3.352-2.199 4.329-0.198-0.056-0.34-0.107-0.403-0.138-0.21-0.091-0.519-0.401-0.799-0.831-0.427-0.643-0.819-1.525-1.094-2.238zM16 26.442c-5.609 0-10.156-4.547-10.156-10.157 0-0.369 0.021-0.733 0.059-1.092 0.832-2.83 2.831-3.877 4.724-3.895 0.384-0.001 0.76 0.050 1.12 0.137-1.348 1.183-2.2 2.916-2.2 4.85 0 3.564 2.889 6.452 6.452 6.452 1.030 0 2.002-0.242 2.866-0.671 0.513 0.181 1.1 0.289 1.811 0.378 0.267 0.033 0.555 0.049 0.861 0.049 0.819-0.003 1.774-0.121 2.768-0.369-1.837 2.61-4.872 4.317-8.307 4.317z"></path>
</svg>
