<?xml version="1.0" encoding="UTF-8"?>
<svg xmlns="http://www.w3.org/2000/svg"
    xmlns:xlink="http://www.w3.org/1999/xlink" width="32" height="32" viewBox="0 0 32 32" version="1.1">
    <g>
        <path fill="#444444" style=" stroke:none;fill-rule:nonzero;fill-opacity:1;" d="M 16 1.28125 C 15.542969 1.28125 15.085938 1.394531 14.675781 1.625 L 3.898438 7.683594 C 3.074219 8.144531 2.558594 9.011719 2.558594 9.941406 L 2.558594 22.058594 C 2.558594 22.988281 3.074219 23.855469 3.898438 24.316406 L 14.675781 30.375 C 15.085938 30.605469 15.542969 30.71875 16 30.71875 C 16.457031 30.71875 16.914062 30.605469 17.324219 30.375 L 28.101562 24.320312 C 28.925781 23.855469 29.441406 22.988281 29.441406 22.058594 L 29.441406 9.941406 C 29.441406 9.011719 28.925781 8.144531 28.101562 7.683594 L 17.324219 1.625 C 16.914062 1.394531 16.457031 1.28125 16 1.28125 Z M 16 8.320312 C 18.421875 8.320312 20.65625 9.441406 22.109375 11.351562 L 19.300781 12.976562 C 18.460938 12.054688 17.261719 11.519531 16 11.519531 C 13.53125 11.519531 11.519531 13.53125 11.519531 16 C 11.519531 18.46875 13.53125 20.480469 16 20.480469 C 17.261719 20.480469 18.460938 19.945312 19.300781 19.023438 L 22.109375 20.648438 C 20.65625 22.558594 18.421875 23.679688 16 23.679688 C 11.765625 23.679688 8.320312 20.234375 8.320312 16 C 8.320312 11.765625 11.765625 8.320312 16 8.320312 Z M 22.398438 12.800781 L 23.679688 12.800781 L 23.679688 14.078125 L 24.960938 14.078125 L 24.960938 12.800781 L 26.238281 12.800781 L 26.238281 14.078125 L 27.519531 14.078125 L 27.519531 15.359375 L 26.238281 15.359375 L 26.238281 16.640625 L 27.519531 16.640625 L 27.519531 17.921875 L 26.238281 17.921875 L 26.238281 19.199219 L 24.960938 19.199219 L 24.960938 17.921875 L 23.679688 17.921875 L 23.679688 19.199219 L 22.398438 19.199219 L 22.398438 17.921875 L 21.121094 17.921875 L 21.121094 16.640625 L 22.398438 16.640625 L 22.398438 15.359375 L 21.121094 15.359375 L 21.121094 14.078125 L 22.398438 14.078125 Z M 23.679688 15.359375 L 23.679688 16.640625 L 24.960938 16.640625 L 24.960938 15.359375 Z M 23.679688 15.359375 "/>
    </g>
</svg>
