<?xml version="1.0" encoding="utf-8"?>
<!-- Generated by IcoMoon.io -->
<!DOCTYPE svg PUBLIC "-//W3C//DTD SVG 1.1//EN" "http://www.w3.org/Graphics/SVG/1.1/DTD/svg11.dtd">
<svg version="1.1" xmlns="http://www.w3.org/2000/svg" xmlns:xlink="http://www.w3.org/1999/xlink" width="32" height="32" viewBox="0 0 32 32">
<path fill="#444444" d="M23.116 23.609c-0.009 0.014-0.025 0.016-0.039 0.020-0.056 0.070-0.142 0.089-0.218 0.122-0.816 0.358-1.63 0.722-2.444 1.084-0.068 0.030-0.129 0.021-0.195-0.001-0.421-0.142-0.838-0.293-1.257-0.441-0.511-0.181-1.021-0.361-1.532-0.541-1.025-0.361-2.050-0.722-3.074-1.085-0.615-0.218-1.232-0.433-1.847-0.65-0.913-0.323-1.829-0.641-2.741-0.968-0.145-0.052-0.299-0.082-0.43-0.168-0.007-0.006-0.014-0.013-0.021-0.019-0.030-0.042-0.041-0.092-0.051-0.141-0.052-0.248-0.081-0.497-0.084-0.751-0.044-3.38-0.005-6.759-0.019-10.139-0-0.055 0.009-0.107 0.018-0.16-0-0.011 0.006-0.017 0.015-0.021 0.008-0.007 0.017-0.008 0.026-0.004 0.052 0.027 0.087 0.074 0.127 0.114 4.537 4.537 9.074 9.074 13.611 13.61 0.043 0.043 0.082 0.090 0.137 0.119 0.008 0.006 0.014 0.013 0.019 0.021zM23.12 23.518c-0.022 0.003-0.039-0.005-0.054-0.020-0.021-0.022-0.043-0.043-0.064-0.064-4.555-4.555-9.109-9.109-13.664-13.664-0.033-0.033-0.071-0.063-0.096-0.104 0.033-0.027 0.072-0.034 0.113-0.035 0.037-0.001 0.074-0.001 0.111-0.001 3.307 0 6.613-0.001 9.92 0.001 0.296 0 0.591 0.020 0.882 0.084 0.059 0.013 0.119 0.025 0.166 0.067 0.007 0.005 0.014 0.011 0.022 0.016 0.086 0.139 0.121 0.299 0.175 0.45 0.433 1.232 0.871 2.462 1.302 3.694 0.278 0.794 0.56 1.587 0.84 2.38 0.454 1.285 0.909 2.57 1.36 3.856 0.058 0.165 0.111 0.332 0.177 0.494 0.032 0.080 0.022 0.153-0.013 0.233-0.305 0.678-0.604 1.359-0.905 2.039-0.071 0.16-0.141 0.321-0.214 0.48-0.015 0.033-0.029 0.068-0.058 0.093zM8.986 21.106c0.069 0.002 0.127 0.038 0.189 0.060 0.294 0.103 0.589 0.205 0.883 0.308 0.601 0.212 1.202 0.425 1.804 0.637 0.532 0.187 1.065 0.372 1.597 0.559 0.354 0.124 0.707 0.251 1.060 0.375 0.624 0.22 1.249 0.439 1.874 0.659 0.34 0.12 0.68 0.241 1.020 0.361 0.634 0.224 1.269 0.446 1.904 0.67 0.35 0.123 0.7 0.247 1.050 0.374 0.064 0.023 0.117 0.019 0.18-0.010 0.28-0.128 0.564-0.249 0.846-0.374 0.212-0.093 0.422-0.189 0.634-0.283 0.343-0.152 0.686-0.302 1.029-0.453 0.090-0.040 0.18-0.079 0.269-0.118-0.169 0.524-0.338 1.048-0.507 1.572-0.102 0.317-0.203 0.635-0.304 0.952-0.068 0.214-0.137 0.428-0.204 0.642-0.030 0.096-0.030 0.098-0.131 0.098-0.453 0-0.906-0.001-1.359-0.001-1.279-0.001-2.557 0.009-3.835-0.005-0.983-0.011-1.966-0.003-2.949-0.009-0.061-0-0.106-0.017-0.148-0.061-0.067-0.072-0.139-0.139-0.209-0.209-1.036-1.030-2.072-2.060-3.108-3.090-0.117-0.116-0.233-0.234-0.351-0.349-0.285-0.277-0.501-0.605-0.691-0.95-0.23-0.42-0.413-0.86-0.538-1.323-0.003-0.010-0.003-0.021-0.004-0.031zM23.343 23.845c0.014-0.107 0.078-0.194 0.118-0.29 0.099-0.239 0.207-0.475 0.312-0.712 0.091-0.205 0.183-0.409 0.274-0.614 0.126-0.285 0.251-0.57 0.377-0.855 0.043-0.096 0.085-0.192 0.132-0.286 0.029-0.057 0.037-0.108 0.014-0.171-0.147-0.408-0.293-0.817-0.437-1.227-0.075-0.211-0.146-0.424-0.22-0.635-0.177-0.506-0.354-1.011-0.532-1.516-0.12-0.34-0.241-0.68-0.361-1.020-0.175-0.495-0.349-0.991-0.523-1.486-0.119-0.337-0.239-0.673-0.358-1.010-0.184-0.522-0.366-1.044-0.55-1.566-0.12-0.34-0.241-0.68-0.361-1.020-0.175-0.495-0.347-0.991-0.524-1.485-0.051-0.142-0.107-0.281-0.141-0.428 0.214 0.043 0.418 0.118 0.621 0.197 0.509 0.2 0.988 0.455 1.417 0.797 0.195 0.156 0.365 0.34 0.541 0.516 0.256 0.255 0.509 0.514 0.765 0.77 0.821 0.823 1.641 1.647 2.463 2.469 0.051 0.051 0.073 0.102 0.072 0.174-0.002 1.826-0.002 3.653-0.003 5.479-0 0.941-0.002 1.883-0.003 2.824 0 0.011 0 0.021 0 0.032-0.001 0.085 0.016 0.085-0.084 0.117-0.16 0.051-0.321 0.102-0.481 0.153-0.812 0.259-1.624 0.519-2.435 0.778-0.023 0.007-0.047 0.012-0.071 0.018-0.008-0.002-0.015-0.003-0.023-0.005zM20.603 9.57c-0.124-0.023-0.247-0.047-0.371-0.069-0.107-0.019-0.214-0.031-0.323-0.037-0.709-0.039-1.418-0.018-2.127-0.019-2.912-0.002-5.823-0.001-8.735-0-0.042 0-0.084 0.002-0.126 0.004-0.007-0.001-0.014-0.002-0.021-0.004 0.183-0.136 0.377-0.256 0.567-0.382 0.491-0.327 0.984-0.651 1.476-0.977 1.025-0.678 2.049-1.358 3.074-2.036 0.524-0.347 1.050-0.691 1.573-1.040 0.093-0.062 0.177-0.137 0.287-0.173 0.226-0.076 0.45-0.056 0.673 0.009 0.31 0.089 0.578 0.252 0.816 0.467 0.088 0.080 0.171 0.167 0.256 0.251 0.778 0.772 1.556 1.545 2.335 2.316 0.059 0.058 0.1 0.121 0.127 0.2 0.167 0.484 0.34 0.967 0.51 1.45 0.005 0.013 0.007 0.027 0.010 0.041zM8.884 9.468c0.029 0.042 0.015 0.089 0.015 0.133 0.001 3.413 0.001 6.826 0.001 10.239 0 0.214 0.019 0.427 0.026 0.64 0.006 0.191 0.046 0.381 0.091 0.567 0.008 0.032 0.027 0.065 0.009 0.1-0.252-0.087-0.504-0.173-0.756-0.261-0.255-0.089-0.509-0.18-0.765-0.268-0.058-0.020-0.105-0.051-0.148-0.095-0.843-0.852-1.688-1.701-2.53-2.553-0.277-0.28-0.473-0.609-0.556-0.999-0.036-0.171-0.040-0.341 0.009-0.511 0.021-0.075 0.052-0.146 0.097-0.209 0.303-0.423 0.58-0.863 0.867-1.295 1.113-1.677 2.222-3.356 3.333-5.034 0.101-0.152 0.203-0.303 0.305-0.455z"></path>
</svg>
