<?xml version="1.0" encoding="utf-8"?>
<!-- Generated by IcoMoon.io -->
<!DOCTYPE svg PUBLIC "-//W3C//DTD SVG 1.1//EN" "http://www.w3.org/Graphics/SVG/1.1/DTD/svg11.dtd">
<svg version="1.1" xmlns="http://www.w3.org/2000/svg" xmlns:xlink="http://www.w3.org/1999/xlink" width="32" height="32" viewBox="0 0 32 32">
<path style="fill: #444444" d="M16 27.442c-6.152 0-11.156-5.005-11.156-11.156s5.004-11.156 11.156-11.156 11.156 5.006 11.156 11.156c0 6.151-5.004 11.156-11.156 11.156zM16 7.609c-4.783 0-8.677 3.892-8.677 8.677s3.894 8.677 8.677 8.677c4.784 0 8.677-3.893 8.677-8.677s-3.893-8.677-8.677-8.677zM17.939 17.062c0.213 0 0.392 0.104 0.547 0.316 0.154 0.209 0.232 0.468 0.232 0.775 0 0.308-0.077 0.567-0.232 0.776s-0.337 0.315-0.547 0.315c-0.224 0-0.416-0.104-0.571-0.315-0.152-0.21-0.231-0.469-0.231-0.776s0.076-0.565 0.231-0.775c0.155-0.212 0.349-0.316 0.571-0.316zM20.68 14.224c0.597 0.647 0.898 1.432 0.898 2.353 0 0.597-0.070 1.135-0.206 1.613-0.138 0.476-0.312 0.866-0.521 1.163-0.212 0.3-0.468 0.564-0.777 0.787-0.309 0.229-0.593 0.392-0.85 0.497s-0.552 0.186-0.886 0.243c-0.33 0.058-0.58 0.090-0.753 0.098-0.167 0.007-0.349 0.011-0.545 0.011-0.044 0-0.191 0.005-0.436 0.012-0.239 0.010-0.445 0.015-0.605 0.015s-0.366-0.005-0.605-0.015c-0.243-0.007-0.392-0.012-0.436-0.012-0.196 0-0.379-0.002-0.545-0.011-0.174-0.009-0.423-0.040-0.752-0.098-0.336-0.056-0.629-0.136-0.887-0.243-0.257-0.104-0.541-0.269-0.848-0.497-0.31-0.225-0.566-0.488-0.778-0.787-0.208-0.298-0.383-0.688-0.521-1.163-0.135-0.478-0.206-1.016-0.206-1.613 0-0.921 0.3-1.706 0.899-2.353-0.066-0.032-0.070-0.355-0.010-0.969 0.053-0.615 0.184-1.181 0.396-1.698 0.746 0.079 1.664 0.501 2.764 1.261 0.372-0.097 0.88-0.146 1.528-0.146 0.68 0 1.189 0.050 1.529 0.146 0.501-0.338 0.98-0.615 1.438-0.826 0.465-0.208 0.799-0.331 1.009-0.363l0.315-0.072c0.213 0.517 0.344 1.085 0.397 1.698 0.062 0.614 0.058 0.937-0.007 0.969zM16.026 20.456c1.342 0 2.354-0.161 3.041-0.483 0.685-0.323 1.034-0.988 1.034-1.99 0-0.581-0.219-1.068-0.656-1.456-0.225-0.211-0.489-0.338-0.792-0.388-0.295-0.048-0.752-0.048-1.368 0-0.614 0.050-1.034 0.072-1.26 0.072-0.307 0-0.641-0.016-1.055-0.048-0.414-0.031-0.739-0.051-0.97-0.061-0.237-0.007-0.49 0.022-0.764 0.085-0.277 0.066-0.501 0.177-0.681 0.338-0.417 0.372-0.629 0.857-0.629 1.456 0 1.002 0.339 1.667 1.018 1.989 0.678 0.324 1.687 0.484 3.029 0.484zM14.085 17.062c0.211 0 0.392 0.104 0.545 0.316 0.154 0.209 0.232 0.468 0.232 0.775 0 0.308-0.077 0.567-0.232 0.776-0.154 0.209-0.336 0.315-0.545 0.315-0.226 0-0.418-0.104-0.573-0.315-0.154-0.21-0.232-0.469-0.232-0.776s0.077-0.565 0.232-0.775c0.155-0.212 0.347-0.316 0.573-0.316z"></path>
</svg>
