<?xml version="1.0" encoding="utf-8"?>
<!-- Generated by IcoMoon.io -->
<!DOCTYPE svg PUBLIC "-//W3C//DTD SVG 1.1//EN" "http://www.w3.org/Graphics/SVG/1.1/DTD/svg11.dtd">
<svg version="1.1" xmlns="http://www.w3.org/2000/svg" xmlns:xlink="http://www.w3.org/1999/xlink" width="34" height="32" viewBox="0 0 34 32">
<path fill="#444444" d="M16.734 15.43c0.115 0.010 0.108-0.086 0.109-0.162 0.002-0.266 0.001-0.532 0.001-0.798 0-0.283 0.001-0.566-0.001-0.85-0-0.068 0.001-0.15-0.096-0.15s-0.095 0.081-0.095 0.15c-0.001 0.549-0.001 1.098-0 1.648 0 0.067-0.010 0.154 0.083 0.162z"></path>
<path fill="#444444" d="M20.202 15.435c0.107-0.009 0.098-0.103 0.098-0.179 0.001-0.266 0-0.533 0-0.799 0-0.275 0-0.55-0-0.825-0-0.080-0.004-0.167-0.112-0.166-0.105 0.001-0.084 0.091-0.084 0.155-0.002 0.55-0.002 1.1 0 1.65 0 0.070-0.028 0.175 0.098 0.165z"></path>
<path fill="#444444" d="M18.175 15.436c0.092 0.004 0.111-0.066 0.111-0.14 0-0.567 0-1.133-0-1.7-0-0.079-0.032-0.139-0.12-0.13-0.084 0.008-0.073 0.082-0.074 0.14-0.001 0.283-0.001 0.567-0.001 0.85 0 0.275-0.001 0.55 0.001 0.824 0.001 0.063-0.023 0.151 0.083 0.155z"></path>
<path fill="#444444" d="M17.463 15.435c0.093-0.002 0.101-0.078 0.101-0.149 0.001-0.558 0.001-1.116 0-1.674-0-0.073-0.012-0.144-0.106-0.145-0.107-0.001-0.088 0.086-0.088 0.15-0.002 0.275-0.001 0.55-0.001 0.824s-0.002 0.55 0.001 0.824c0.001 0.069-0.033 0.172 0.093 0.17z"></path>
<path fill="#444444" d="M16.815 10.856c-0-0.060-0.001-0.133-0.086-0.128s-0.074 0.081-0.074 0.139c-0.001 0.275-0.001 0.549-0.001 0.824s-0.002 0.549 0.001 0.824c0.001 0.063-0.020 0.155 0.085 0.153 0.084-0.002 0.075-0.081 0.075-0.138 0.001-0.558 0.001-1.116 0-1.674z"></path>
<path fill="#444444" d="M17.808 15.435c0.109 0.007 0.116-0.079 0.116-0.16 0-0.55 0-1.099 0-1.649 0-0.081-0.007-0.167-0.116-0.16-0.103 0.007-0.077 0.097-0.078 0.16-0.003 0.275-0.001 0.55-0.001 0.824s-0.001 0.55 0.001 0.824c0.001 0.063-0.025 0.153 0.078 0.16z"></path>
<path fill="#444444" d="M17.007 14.446c0 0.275-0.001 0.55 0.001 0.824 0.001 0.063-0.025 0.154 0.074 0.164 0.107 0.011 0.121-0.072 0.121-0.156 0-0.55 0-1.099-0-1.649 0-0.079-0.002-0.17-0.112-0.164-0.122 0.007-0.080 0.113-0.082 0.181-0.005 0.266-0.002 0.533-0.002 0.799z"></path>
<path fill="#444444" d="M20.465 15.288c0 0.065-0.016 0.151 0.090 0.149 0.092-0.002 0.106-0.074 0.106-0.147 0.001-0.559 0.001-1.117 0-1.676-0-0.072-0.012-0.145-0.104-0.149-0.107-0.004-0.092 0.081-0.092 0.147-0.002 0.275-0.001 0.55-0.001 0.825 0 0.284-0.001 0.567 0.001 0.851z"></path>
<path fill="#444444" d="M13.992 12.701c0.11 0.006 0.115-0.081 0.115-0.161 0-0.557 0.001-1.114-0.001-1.672-0-0.070-0.008-0.145-0.104-0.146-0.109-0.001-0.088 0.085-0.088 0.148-0.002 0.274-0.001 0.549-0.001 0.823-0 0.283-0.001 0.566 0.001 0.849 0.001 0.063-0.024 0.153 0.079 0.159z"></path>
<path fill="#444444" d="M15.351 12.567c0 0.060-0.002 0.129 0.081 0.135 0.089 0.006 0.119-0.054 0.119-0.132 0.001-0.567 0.001-1.134 0-1.701-0-0.070-0.008-0.144-0.104-0.147-0.105-0.003-0.096 0.078-0.096 0.144-0.001 0.283-0.001 0.567-0.001 0.85s-0 0.567 0 0.85z"></path>
<path fill="#444444" d="M13.989 13.465c-0.1 0.009-0.075 0.099-0.076 0.163-0.002 0.275-0.001 0.55-0.001 0.825s-0.001 0.55 0.001 0.825c0.001 0.063-0.023 0.154 0.081 0.158 0.108 0.004 0.115-0.083 0.115-0.163 0-0.55 0-1.1 0-1.65-0-0.083-0.014-0.167-0.12-0.158z"></path>
<path fill="#444444" d="M14.354 12.701c0.11 0.006 0.114-0.081 0.115-0.161 0-0.557 0.001-1.114-0.001-1.672-0-0.070-0.008-0.145-0.104-0.146-0.109-0.001-0.088 0.085-0.088 0.148-0.002 0.274-0.001 0.549-0.001 0.823-0 0.283-0.002 0.566 0.001 0.849 0.001 0.063-0.025 0.153 0.079 0.159z"></path>
<path fill="#444444" d="M14.996 12.565c0 0.058-0.009 0.131 0.077 0.137 0.090 0.006 0.117-0.056 0.117-0.134 0-0.566 0.001-1.132-0-1.697-0-0.069-0.006-0.145-0.102-0.148-0.109-0.004-0.091 0.081-0.091 0.145-0.002 0.274-0.001 0.549-0.001 0.823 0 0.291-0.001 0.583 0 0.874z"></path>
<path fill="#444444" d="M14.718 12.701c0.092 0.004 0.11-0.066 0.111-0.14 0-0.566 0.001-1.132-0.001-1.697-0-0.071-0.012-0.144-0.108-0.142-0.109 0.002-0.084 0.090-0.084 0.152-0.003 0.274-0.001 0.549-0.001 0.823 0 0.283-0.001 0.566 0.001 0.849 0.001 0.063-0.024 0.151 0.083 0.155z"></path>
<path fill="#444444" d="M17.37 9.804c0 0.063-0.025 0.154 0.075 0.163 0.108 0.010 0.119-0.074 0.119-0.157 0-0.274 0-0.549 0-0.823s0.001-0.549-0.001-0.823c-0.001-0.075 0.011-0.17-0.1-0.175-0.127-0.005-0.092 0.101-0.092 0.168-0.003 0.549-0.002 1.097-0.001 1.646z"></path>
<path fill="#444444" d="M18.613 10.874c-0-0.063 0.017-0.154-0.090-0.146-0.086 0.006-0.068 0.086-0.068 0.141-0.002 0.265-0.001 0.53-0.001 0.795 0 0.282-0.002 0.564 0.001 0.846 0.001 0.062-0.026 0.157 0.076 0.16s0.082-0.092 0.082-0.155c0.002-0.547 0.002-1.094 0-1.642z"></path>
<path fill="#444444" d="M19.489 15.431c0.096-0.004 0.095-0.083 0.095-0.152 0.001-0.275 0-0.55 0-0.825s0.001-0.55-0-0.825c-0-0.068 0.005-0.149-0.090-0.157s-0.108 0.066-0.108 0.139c-0.001 0.559-0.001 1.118 0 1.677 0 0.071 0.006 0.148 0.103 0.144z"></path>
<path fill="#444444" d="M18.18 10.723c-0.108-0-0.087 0.086-0.088 0.15-0.002 0.274-0.001 0.549-0.001 0.823 0 0.283-0.001 0.566 0.001 0.849 0.001 0.063-0.023 0.151 0.080 0.158 0.090 0.006 0.114-0.062 0.114-0.137 0.001-0.566 0.001-1.132-0-1.697 0-0.071-0.013-0.144-0.107-0.145z"></path>
<path fill="#444444" d="M17.097 10.723c-0.108-0-0.087 0.086-0.088 0.15-0.002 0.274-0.001 0.549-0.001 0.823 0 0.283-0.001 0.566 0.001 0.849 0.001 0.063-0.023 0.151 0.081 0.158 0.090 0.006 0.114-0.062 0.114-0.137 0.001-0.566 0.001-1.132-0-1.697-0-0.071-0.013-0.145-0.107-0.145z"></path>
<path fill="#444444" d="M18.454 8.967c0 0.274-0.002 0.549 0.001 0.823 0.001 0.062-0.025 0.154 0.085 0.15 0.085-0.003 0.074-0.081 0.074-0.138 0.001-0.557 0.001-1.115 0-1.672-0-0.057 0.011-0.134-0.075-0.137-0.111-0.004-0.083 0.089-0.084 0.151-0.003 0.274-0.002 0.549-0.002 0.823z"></path>
<path fill="#444444" d="M17.463 10.724c-0.126-0.005-0.091 0.101-0.092 0.169-0.004 0.266-0.002 0.531-0.002 0.797 0 0.283-0.001 0.566 0.001 0.849 0.001 0.064-0.024 0.154 0.076 0.163 0.106 0.009 0.12-0.075 0.12-0.157 0-0.549 0.001-1.097-0-1.646-0-0.076 0.006-0.17-0.103-0.174z"></path>
<path fill="#444444" d="M17.824 10.724c-0.126-0.005-0.091 0.101-0.092 0.169-0.004 0.266-0.002 0.531-0.002 0.797 0 0.283-0.001 0.566 0.001 0.849 0.001 0.064-0.024 0.154 0.076 0.163 0.106 0.009 0.12-0.075 0.12-0.157 0-0.549 0.001-1.097-0-1.646-0-0.076 0.006-0.17-0.103-0.174z"></path>
<path fill="#444444" d="M18.455 15.273c0 0.056-0.014 0.135 0.073 0.136 0.106 0.002 0.085-0.089 0.085-0.151 0.003-0.265 0.001-0.53 0.001-0.795 0-0.274 0.002-0.547-0.001-0.821-0.001-0.063 0.019-0.153-0.088-0.149-0.087 0.004-0.071 0.083-0.071 0.138-0.002 0.547-0.002 1.094 0 1.642z"></path>
<path fill="#444444" d="M16.738 9.938c0.099-0.002 0.078-0.096 0.079-0.159 0.003-0.265 0.001-0.53 0.001-0.796 0-0.282 0.001-0.565-0.001-0.847-0-0.056 0.013-0.134-0.072-0.141-0.108-0.009-0.090 0.082-0.090 0.145-0.002 0.547-0.002 1.095 0 1.642 0 0.063-0.020 0.157 0.082 0.155z"></path>
<path fill="#444444" d="M17.009 9.801c0 0.070-0.029 0.175 0.098 0.164 0.109-0.009 0.095-0.104 0.095-0.179 0.002-0.266 0.001-0.531 0-0.797 0-0.274 0.001-0.549-0.001-0.823-0.001-0.074 0.012-0.17-0.098-0.176-0.128-0.008-0.094 0.098-0.094 0.166-0.003 0.549-0.002 1.097-0 1.646z"></path>
<path fill="#444444" d="M19.745 15.247c0 0.074-0.044 0.196 0.1 0.186 0.125-0.009 0.098-0.119 0.099-0.2 0.003-0.257 0.001-0.513 0.001-0.77 0-0.265 0.001-0.53-0.001-0.796-0.001-0.081 0.025-0.192-0.101-0.199-0.144-0.008-0.098 0.114-0.098 0.187-0.004 0.53-0.004 1.061-0 1.591z"></path>
<path fill="#444444" d="M17.73 8.969c0 0.283-0.001 0.566 0.001 0.849 0 0.064-0.018 0.15 0.089 0.149 0.094-0.001 0.104-0.074 0.104-0.146 0.001-0.557 0.001-1.114-0-1.671-0-0.078-0.003-0.167-0.114-0.161-0.107 0.005-0.077 0.097-0.078 0.158-0.004 0.274-0.002 0.549-0.002 0.823z"></path>
<path fill="#444444" d="M18.091 8.978c0 0.274-0.002 0.549 0.001 0.823 0.001 0.070-0.030 0.172 0.097 0.165 0.093-0.005 0.096-0.083 0.096-0.153 0-0.557 0.001-1.114-0.001-1.671-0-0.069-0.003-0.148-0.097-0.152-0.128-0.006-0.094 0.098-0.095 0.166-0.004 0.274-0.002 0.549-0.002 0.823z"></path>
<path fill="#444444" d="M14.353 13.465c-0.102 0.006-0.078 0.097-0.078 0.16-0.002 0.275-0.001 0.55-0.001 0.825s-0.001 0.55 0.001 0.825c0.001 0.064-0.023 0.154 0.078 0.161 0.107 0.007 0.118-0.079 0.118-0.16 0-0.55 0-1.1 0-1.65-0-0.082-0.010-0.167-0.118-0.161z"></path>
<path fill="#444444" d="M15.714 12.512c0 0.062-0.024 0.158 0.076 0.161 0.123 0.004 0.088-0.105 0.089-0.173 0.004-0.266 0.002-0.533 0.002-0.799s0.003-0.533-0.002-0.799c-0.001-0.068 0.037-0.177-0.088-0.174-0.101 0.002-0.077 0.097-0.077 0.16-0.002 0.541-0.002 1.083 0 1.624z"></path>
<path fill="#444444" d="M11.257 15.435c0.109 0.007 0.116-0.079 0.116-0.16 0-0.55 0-1.099 0-1.649 0-0.081-0.007-0.167-0.116-0.16-0.103 0.007-0.077 0.097-0.078 0.16-0.002 0.275-0.001 0.55-0.001 0.824s-0.001 0.55 0.001 0.824c0.001 0.063-0.025 0.153 0.078 0.16z"></path>
<path fill="#444444" d="M10.247 15.277c0 0.058-0.004 0.133 0.084 0.129 0.086-0.005 0.073-0.081 0.074-0.137 0.002-0.274 0.001-0.548 0.001-0.822 0-0.265 0.002-0.531-0.001-0.796-0.001-0.061 0.026-0.155-0.082-0.153-0.084 0.001-0.075 0.079-0.076 0.136-0.001 0.548-0.001 1.096 0 1.644z"></path>
<path fill="#444444" d="M11.631 15.435c0.11-0.004 0.103-0.095 0.103-0.172 0.001-0.547 0-1.094 0-1.641 0-0.083-0.014-0.164-0.121-0.155-0.098 0.008-0.080 0.095-0.081 0.16-0.002 0.274-0.001 0.547-0.001 0.821s-0.002 0.547 0.001 0.821c0.001 0.071-0.024 0.172 0.097 0.167z"></path>
<path fill="#444444" d="M11.897 15.259c0.001 0.063-0.019 0.153 0.088 0.15 0.086-0.002 0.077-0.078 0.078-0.135 0.001-0.548 0.001-1.096-0-1.644-0-0.057 0.010-0.133-0.075-0.137-0.107-0.005-0.089 0.084-0.090 0.147-0.002 0.265-0.001 0.531-0.001 0.797 0 0.274-0.002 0.548 0.001 0.822z"></path>
<path fill="#444444" d="M9.886 15.279c0 0.059-0.001 0.132 0.087 0.126 0.085-0.005 0.076-0.080 0.076-0.137 0.002-0.266 0.001-0.532 0.001-0.797 0-0.274 0.002-0.549-0.001-0.823-0.001-0.063 0.019-0.154-0.087-0.151-0.085 0.002-0.076 0.079-0.077 0.136-0.001 0.549-0.001 1.098 0 1.647z"></path>
<path fill="#444444" d="M12.619 15.261c0 0.064-0.017 0.156 0.089 0.148 0.1-0.008 0.075-0.099 0.076-0.162 0.003-0.265 0.001-0.531 0.001-0.796s0.002-0.531-0.001-0.797c-0.001-0.063 0.024-0.154-0.077-0.161-0.106-0.007-0.088 0.085-0.088 0.149-0.002 0.54-0.002 1.079-0 1.619z"></path>
<path fill="#444444" d="M12.257 14.447c0 0.274-0.001 0.548 0.001 0.822 0 0.056-0.012 0.133 0.073 0.139 0.107 0.008 0.092-0.081 0.092-0.144 0.002-0.54 0.002-1.079-0-1.619-0-0.063 0.020-0.156-0.085-0.152-0.102 0.003-0.079 0.095-0.080 0.158-0.003 0.265-0.001 0.531-0.001 0.797z"></path>
<path fill="#444444" d="M27.75 16.528c0.145-0.445 0.388-0.553 0.849-0.563 1.549-0.033 2.799-0.622 3.495-2.106 0.064-0.137 0.058-0.188-0.078-0.272-0.993-0.61-2.056-0.722-3.175-0.479-0.097 0.021-0.208 0.106-0.243-0.092-0.165-0.926-0.665-1.663-1.336-2.296-0.223-0.21-0.442-0.427-0.719-0.57-0.249 0.239-0.479 0.498-0.611 0.819-0.528 1.28-0.527 2.54 0.195 3.754 0.084 0.141 0.045 0.185-0.074 0.244-0.316 0.156-0.643 0.282-0.98 0.389-0.919 0.292-1.867 0.243-2.811 0.252-0.191 0.002-0.248-0.046-0.245-0.242 0.012-0.765-0.007-1.531 0.012-2.295 0.006-0.24-0.072-0.281-0.289-0.277-0.696 0.013-1.393 0.007-2.089 0.004-0.418-0.002-0.361 0.047-0.362-0.349-0.002-1.634-0.003-3.267 0.002-4.9 0.001-0.169-0.028-0.24-0.221-0.238-0.954 0.010-1.908 0.010-2.863 0-0.188-0.002-0.227 0.061-0.225 0.235 0.009 0.748-0.006 1.496 0.010 2.244 0.005 0.231-0.060 0.282-0.284 0.281-1.651-0.010-3.301-0.002-4.952-0.010-0.208-0.001-0.254 0.061-0.251 0.258 0.011 0.756-0 1.513 0.008 2.27 0.002 0.168-0.044 0.217-0.214 0.215-0.756-0.009-1.513 0.002-2.27-0.008-0.194-0.003-0.264 0.038-0.26 0.25 0.014 0.782 0.001 1.565 0.009 2.347 0.002 0.168-0.043 0.219-0.214 0.216-0.645-0.010-1.289-0.002-1.934-0.006-0.127-0.001-0.208 0.011-0.22 0.169-0.043 0.566-0.082 1.131-0.031 1.698 0.027 0.299 0.029 0.299-0.276 0.238-0.599-0.12-1.143-0.352-1.588-0.806-0.037 0.439-0.157 0.617-0.546 0.812-0.4 0.2-0.84 0.282-1.26 0.427 1.169 0 2.338 0.006 3.507-0.005 0.199-0.002 0.256 0.064 0.29 0.248 0.223 1.223 0.731 2.318 1.53 3.273 1.576 1.885 3.657 2.761 6.048 2.974 1.854 0.165 3.69-0.010 5.495-0.458 3.512-0.873 6.301-2.77 8.236-5.862 0.085-0.136 0.177-0.174 0.331-0.173 1.53 0.006 3.061 0.004 4.591 0.004 0.087 0 0.174 0 0.261 0-0.289-0.108-0.584-0.165-0.863-0.266-0.462-0.168-0.959-0.32-0.944-0.967-0.154 0.124-0.28 0.243-0.423 0.337-0.756 0.493-1.601 0.573-2.474 0.53-0.155-0.008-0.115-0.071-0.071-0.159 0.18-0.36 0.401-0.708 0.525-1.087zM19.18 13.415c-0.001-0.141 0.059-0.173 0.185-0.173 0.679 0.004 1.358 0.004 2.037 0 0.131-0.001 0.186 0.048 0.186 0.181-0.003 0.688-0.003 1.375-0 2.063 0 0.139-0.069 0.174-0.194 0.172-0.335-0.004-0.671-0.002-1.006-0.002s-0.671-0.004-1.006 0.002c-0.133 0.002-0.205-0.023-0.204-0.181 0.007-0.688 0.006-1.375 0.001-2.063zM18.855 12.722c0.001 0.145-0.057 0.196-0.199 0.195-0.679-0.004-1.358-0.006-2.037 0.001-0.16 0.002-0.182-0.073-0.179-0.205 0.006-0.335 0.002-0.67 0.002-1.005s0.005-0.671-0.003-1.005c-0.003-0.142 0.038-0.197 0.188-0.195 0.67 0.006 1.341 0.006 2.011 0 0.151-0.001 0.218 0.042 0.217 0.203-0.005 0.67-0.005 1.341-0 2.011zM16.442 8.965c0-0.327 0.006-0.653-0.003-0.979-0.004-0.148 0.028-0.215 0.196-0.213 0.67 0.009 1.34 0.008 2.010 0.001 0.16-0.002 0.209 0.057 0.207 0.21-0.005 0.662-0.005 1.323 0 1.985 0.001 0.153-0.045 0.214-0.206 0.213-0.67-0.006-1.34-0.007-2.010 0.001-0.166 0.002-0.202-0.062-0.198-0.212 0.009-0.335 0.003-0.67 0.003-1.005zM16.439 13.452c-0.001-0.15 0.032-0.212 0.198-0.21 0.67 0.008 1.34 0.008 2.009 0.001 0.161-0.002 0.207 0.059 0.206 0.211-0.005 0.661-0.006 1.322 0 1.984 0.002 0.165-0.049 0.229-0.221 0.223-0.334-0.011-0.67-0.003-1.005-0.003-0.326 0-0.653-0.006-0.979 0.003-0.15 0.004-0.213-0.031-0.211-0.198 0.009-0.67 0.007-1.339 0.001-2.009zM13.904 10.508c0.66 0.008 1.321 0.008 1.981 0 0.158-0.002 0.21 0.048 0.205 0.205-0.010 0.334-0.003 0.669-0.003 1.003s-0.005 0.669 0.003 1.003c0.003 0.142-0.040 0.197-0.189 0.196-0.669-0.006-1.338-0.006-2.007 0-0.147 0.001-0.191-0.048-0.189-0.193 0.006-0.669 0.007-1.338-0-2.007-0.002-0.152 0.036-0.21 0.2-0.208zM16.087 14.475c-0 0.335-0.004 0.67 0.002 1.005 0.003 0.133-0.045 0.18-0.179 0.179-0.679-0.005-1.357-0.004-2.036-0.001-0.12 0.001-0.168-0.038-0.167-0.163 0.004-0.696 0.004-1.392 0-2.088-0.001-0.121 0.041-0.167 0.164-0.166 0.679 0.004 1.357 0.006 2.036-0.001 0.158-0.002 0.185 0.069 0.182 0.202-0.006 0.344-0.002 0.687-0.002 1.031zM11.147 10.508c0.677 0.005 1.355 0.005 2.032 0 0.138-0.001 0.176 0.054 0.175 0.183-0.004 0.686-0.004 1.372-0 2.058 0.001 0.12-0.042 0.169-0.164 0.168-0.686-0.003-1.372-0.004-2.058 0.001-0.153 0.001-0.16-0.082-0.159-0.197 0.003-0.334 0.001-0.669 0.001-1.003 0-0.343 0.004-0.686-0.002-1.029-0.003-0.131 0.038-0.182 0.175-0.181zM11.18 13.242c0.335 0.009 0.67 0.003 1.006 0.003 0.327 0 0.653 0.006 0.98-0.003 0.149-0.004 0.191 0.051 0.19 0.194-0.006 0.679-0.006 1.358 0 2.037 0.001 0.153-0.061 0.186-0.199 0.185-0.662-0.005-1.324-0.007-1.986 0.001-0.162 0.002-0.203-0.054-0.201-0.208 0.007-0.67 0.008-1.341-0.001-2.011-0.002-0.167 0.059-0.203 0.21-0.199zM8.231 13.428c-0.001-0.153 0.061-0.187 0.199-0.186 0.662 0.005 1.323 0.007 1.985-0.001 0.163-0.002 0.202 0.057 0.201 0.209-0.007 0.67-0.008 1.34 0 2.010 0.002 0.165-0.059 0.204-0.21 0.2-0.326-0.009-0.653-0.003-0.979-0.003s-0.653-0.005-0.979 0.002c-0.145 0.003-0.218-0.025-0.216-0.195 0.008-0.679 0.007-1.358 0.001-2.036zM26.267 18.337c-0.6 0.894-1.28 1.721-2.082 2.439-0.978 0.876-2.071 1.577-3.269 2.115-1.266 0.569-2.591 0.929-3.963 1.134-0.669 0.1-1.343 0.142-2.017 0.186v0c-1.681 0.068-3.323-0.092-4.879-0.795-0.919-0.415-1.71-1.010-2.432-1.704-0.035-0.034-0.085-0.061-0.083-0.15 0.835 0.053 1.669 0.044 2.502-0.006 0.643-0.056 1.279-0.15 1.905-0.312v0 0c0.081-0.028 0.162-0.055 0.242-0.083 0.13-0.044 0.212-0.125 0.169-0.269-0.044-0.146-0.159-0.162-0.289-0.12-0.521 0.17-1.056 0.27-1.602 0.322-0.433 0.041-0.865 0.101-1.302 0.081-0.616 0.021-1.231 0.005-1.846-0.038-0.096-0.007-0.156-0.042-0.21-0.118-0.588-0.828-0.982-1.736-1.162-2.738-0.024-0.137 0.031-0.143 0.129-0.142 0.342 0.004 0.685 0.006 1.027 0.008 0.077-0.003 0.154-0.008 0.232-0.008 5.433-0 10.865-0 16.297-0 0.077 0 0.154 0.005 0.232 0.007 0.764-0.002 1.528-0.001 2.292-0.010 0.191-0.002 0.206 0.054 0.108 0.2zM26.765 17.513c-0.076 0.138-0.148 0.173-0.304 0.128-0.34-0.096-0.679-0.19-0.967-0.401-0.101-0.073-0.146-0.055-0.23 0.025-0.188 0.179-0.41 0.308-0.672 0.354-0.572 0.217-1.174 0.247-1.773 0.249-0.713 0.003-1.423-0.066-2.116-0.248-0.438-0.115-0.892-0.21-1.2-0.592-0.070-0.086-0.1-0.009-0.138 0.024-0.819 0.728-1.816 0.838-2.847 0.798-0.578-0.023-1.138-0.153-1.659-0.421-0.216-0.111-0.387-0.36-0.583-0.396-0.173-0.032-0.347 0.268-0.57 0.36-0.577 0.24-1.184 0.349-1.798 0.419-0.822 0.093-1.645 0.090-2.459-0.088-0.38-0.083-0.752-0.195-1.035-0.483-0.090-0.092-0.137-0.042-0.212 0.005-0.368 0.231-0.767 0.379-1.201 0.427-0.323 0.105-0.658 0.102-0.992 0.11-0.091 0.002-0.136-0.029-0.151-0.128-0.073-0.479-0.040-0.959-0.029-1.44 0.003-0.127 0.085-0.149 0.193-0.147 0.292 0.006 0.584 0.006 0.876 0.009 0.112-0.003 0.223-0.008 0.335-0.008 5.32-0 10.64 0.002 15.96-0.003 0.916-0.001 1.811-0.142 2.662-0.506 0.325-0.139 0.634-0.306 0.918-0.516 0.056-0.041 0.168-0.077 0.049-0.19-0.457-0.433-0.679-0.988-0.757-1.597-0.1-0.781-0.032-1.544 0.362-2.249 0.154-0.276 0.162-0.278 0.394-0.073 0.714 0.632 1.244 1.373 1.353 2.353 0.015 0.136 0.013 0.274 0.009 0.411-0.002 0.061 0 0.101 0.071 0.104 1.029-0.465 2.063-0.497 3.109-0.053 0.208 0.088 0.192 0.179 0.087 0.341-0.513 0.799-1.274 1.2-2.18 1.359-0.429 0.076-0.864 0.137-1.302 0.061-0.197-0.034-0.304 0.025-0.378 0.23-0.223 0.613-0.511 1.197-0.825 1.769z"></path>
<path fill="#444444" d="M8.448 15.258c0.001 0.062-0.021 0.154 0.088 0.145 0.084-0.007 0.069-0.086 0.069-0.142 0.002-0.539 0.002-1.079-0-1.618-0-0.063 0.016-0.154-0.090-0.145-0.085 0.007-0.067 0.087-0.067 0.142-0.002 0.265-0.001 0.531-0.001 0.796 0 0.274-0.002 0.548 0.001 0.822z"></path>
<path fill="#444444" d="M9.525 15.263c0 0.056-0.013 0.134 0.072 0.14 0.107 0.008 0.091-0.081 0.092-0.145 0.002-0.54 0.002-1.080 0-1.621-0-0.056 0.013-0.134-0.072-0.14-0.107-0.008-0.091 0.081-0.092 0.145-0.002 0.266-0.001 0.532-0.001 0.797-0 0.274-0.001 0.549 0.001 0.823z"></path>
<path fill="#444444" d="M8.883 15.406c0.086 0.002 0.083-0.072 0.083-0.131 0.002-0.274 0.001-0.549 0.001-0.823s0.001-0.549-0.001-0.823c-0-0.058 0.005-0.132-0.080-0.134-0.086-0.002-0.083 0.072-0.083 0.131-0.001 0.549-0.001 1.098-0 1.646 0 0.058-0.005 0.132 0.080 0.134z"></path>
<path fill="#444444" d="M14.73 13.466c-0.125-0.006-0.093 0.1-0.094 0.169-0.003 0.541-0.003 1.083 0 1.625 0 0.068-0.036 0.174 0.088 0.175 0.109 0.001 0.108-0.091 0.108-0.169 0.001-0.266 0-0.533 0-0.799 0-0.275 0.001-0.55-0-0.825-0.001-0.077 0.006-0.17-0.102-0.175z"></path>
<path fill="#444444" d="M9.245 15.406c0.085 0 0.082-0.073 0.082-0.132 0.001-0.266 0.001-0.532 0.001-0.798 0-0.283 0.001-0.566-0.001-0.849-0-0.059 0.004-0.133-0.082-0.133s-0.082 0.073-0.082 0.132c-0.001 0.549-0.001 1.098 0 1.646 0 0.059-0.004 0.132 0.082 0.133z"></path>
<path fill="#444444" d="M15.801 13.496c-0.105-0.001-0.085 0.090-0.086 0.153-0.003 0.266-0.001 0.532-0.001 0.798 0 0.274-0.001 0.549 0.001 0.823 0 0.058-0.007 0.132 0.078 0.136 0.088 0.004 0.085-0.069 0.085-0.128 0.001-0.549 0.001-1.098 0-1.647-0-0.058 0.007-0.135-0.078-0.135z"></path>
<path fill="#444444" d="M20.921 15.436c0.091-0.003 0.101-0.079 0.101-0.151 0.001-0.559 0.001-1.117-0-1.676-0-0.073-0.017-0.144-0.109-0.144-0.106 0-0.087 0.087-0.087 0.152-0.002 0.275-0.001 0.55-0.001 0.825s-0.002 0.55 0.001 0.825c0.001 0.069-0.031 0.173 0.095 0.169z"></path>
<path fill="#444444" d="M13.062 12.672c0.087-0 0.077-0.077 0.077-0.134 0.002-0.282 0.001-0.564 0.001-0.846s0.001-0.564-0.001-0.846c-0-0.050 0.004-0.11-0.066-0.118-0.088-0.010-0.092 0.058-0.092 0.119-0.001 0.564-0.001 1.129 0 1.693 0 0.059-0.004 0.133 0.081 0.133z"></path>
<path fill="#444444" d="M15.554 13.654c-0-0.084 0.011-0.191-0.114-0.188-0.118 0.002-0.087 0.108-0.087 0.177-0.002 0.539-0.002 1.078-0 1.617 0 0.070-0.030 0.175 0.090 0.175 0.125 0 0.111-0.107 0.112-0.19 0.002-0.265 0.001-0.53 0.001-0.796s0.001-0.53-0.001-0.796z"></path>
<path fill="#444444" d="M12.979 14.437c0 0.274-0.002 0.547 0.001 0.821 0.001 0.063-0.021 0.153 0.085 0.151 0.087-0.002 0.073-0.081 0.073-0.136 0.002-0.547 0.002-1.094 0-1.641-0-0.055 0.016-0.134-0.071-0.138-0.107-0.005-0.087 0.086-0.088 0.149-0.003 0.265-0.001 0.53-0.001 0.795z"></path>
<path fill="#444444" d="M12.62 12.542c0 0.059-0.003 0.132 0.083 0.13 0.085-0.002 0.080-0.075 0.080-0.134 0.002-0.274 0.001-0.548 0.001-0.822 0-0.283 0.001-0.565-0.001-0.848-0-0.057 0.014-0.133-0.071-0.14-0.108-0.009-0.092 0.080-0.093 0.144-0.001 0.557-0.001 1.113 0 1.67z"></path>
<path fill="#444444" d="M15.081 13.466c-0.121 0.006-0.082 0.112-0.083 0.18-0.004 0.266-0.002 0.533-0.002 0.799 0 0.275-0.002 0.55 0.001 0.825 0.001 0.070-0.028 0.173 0.098 0.165 0.091-0.006 0.098-0.083 0.098-0.154 0.001-0.55 0.001-1.1 0-1.65-0-0.080-0.004-0.171-0.112-0.165z"></path>
<path fill="#444444" d="M21.264 15.436c0.107 0.008 0.119-0.077 0.119-0.159 0.001-0.275 0-0.55 0-0.825s0-0.55-0-0.825c-0-0.081-0.008-0.167-0.116-0.162-0.103 0.005-0.080 0.096-0.080 0.159-0.002 0.55-0.002 1.1-0 1.65 0 0.064-0.023 0.154 0.077 0.162z"></path>
<path fill="#444444" d="M11.26 12.702c0.090 0.006 0.114-0.062 0.114-0.137 0.001-0.566 0.001-1.132-0-1.697-0-0.071-0.013-0.144-0.107-0.145-0.108-0-0.087 0.086-0.088 0.15-0.002 0.274-0.001 0.549-0.001 0.823 0 0.283-0.001 0.566 0.001 0.849 0.001 0.063-0.023 0.151 0.081 0.158z"></path>
<path fill="#444444" d="M11.617 12.702c0.107 0.007 0.119-0.077 0.119-0.159 0-0.558 0.001-1.116-0.001-1.674-0-0.071-0.012-0.144-0.106-0.146-0.105-0.002-0.094 0.080-0.094 0.146-0.002 0.275-0.001 0.55-0.001 0.824-0 0.283-0.001 0.567 0.001 0.85 0 0.065-0.018 0.153 0.082 0.159z"></path>
<path fill="#444444" d="M12.259 12.542c0 0.059-0.003 0.132 0.084 0.13 0.085-0.002 0.079-0.076 0.080-0.134 0.002-0.283 0.001-0.565 0.001-0.848 0-0.274 0.001-0.548-0.001-0.822-0-0.056 0.014-0.133-0.072-0.14-0.107-0.009-0.092 0.080-0.092 0.144-0.002 0.557-0.001 1.113 0 1.67z"></path>
<path fill="#444444" d="M11.977 12.671c0.104 0.004 0.084-0.090 0.085-0.153 0.003-0.274 0.001-0.548 0.001-0.822s0.001-0.548-0.001-0.822c-0-0.064 0.016-0.153-0.091-0.146-0.085 0.006-0.073 0.082-0.073 0.139-0.001 0.548-0.002 1.096 0 1.644 0 0.063-0.021 0.155 0.079 0.159z"></path>
<path fill="#444444" d="M13.863 20.13c-0.006-0.374-0.307-0.66-0.684-0.649-0.362 0.010-0.641 0.303-0.638 0.671 0.003 0.358 0.303 0.654 0.66 0.651 0.378-0.003 0.667-0.296 0.662-0.673zM13.215 20.616c-0.262 0.005-0.476-0.195-0.486-0.457-0.010-0.254 0.176-0.471 0.426-0.485 0.089-0.005 0.213-0.048 0.149 0.146-0.051 0.153 0.061 0.272 0.211 0.213 0.176-0.069 0.155 0.024 0.159 0.127-0.006 0.251-0.207 0.451-0.459 0.456z"></path>
</svg>
