<?xml version="1.0" encoding="utf-8"?>
<!-- Generated by IcoMoon.io -->
<!DOCTYPE svg PUBLIC "-//W3C//DTD SVG 1.1//EN" "http://www.w3.org/Graphics/SVG/1.1/DTD/svg11.dtd">
<svg version="1.1" xmlns="http://www.w3.org/2000/svg" xmlns:xlink="http://www.w3.org/1999/xlink" width="32" height="32" viewBox="0 0 32 32">
<path fill="#444444" d="M8.579 10.956c0.041-0.019 0.083-0.037 0.125-0.053-0.041 0.016-0.083 0.035-0.125 0.053zM2.496 22.174h0.126c0.372 0 0.477 0 0.905 0h0.337c0.026 0 0.052 0 0.078 0 0.029 0 0.060 0 0.091 0 0 0 0.005 0 0.006 0 0.013 0 0.026 0 0.038 0 0.005 0 0.005 0 0.009 0 0.005 0 0.011 0.006 0.017 0.005 2.378-0.122 3.48-1.352 4.034-3.124 0.431-1.375 0.784-2.532 1.094-3.504-0 0-0 0.001-0 0.001 0.004-0.012 0.007-0.023 0.011-0.035 0.747-1.048 1.519-1.953 2.215-2.687v0c0 0 0.016 0 0.016-0 1.065 3.257 1.476 9.068 4.591 9.068 0.126 0 0.257 0.003 0.384-0.010-0.127 0.013-0.25 0.030-0.376 0.030h2.474c-0.175 0-0.341-0.026-0.501-0.059-0.101-0.021-0.199-0.052-0.295-0.085 0.096 0.032 0.194 0.057 0.296 0.077 0.16 0.033 0.326 0.048 0.5 0.048 0.459 0 0.842-0.035 1.176-0.144-0.334 0.109-0.717 0.162-1.176 0.162h2.42c0 0 0 0 0 0 0.021 0 0.042 0 0.062 0 0 0 0 0 0 0s0.001 0 0.002 0l0.001-0.005 0.913-0.009c-0.117 0-0.226-0.021-0.331-0.056 0.001-0.002 0.003-0.003 0.004-0.005 0.103 0.031 0.21 0.037 0.325 0.037 2.403 0 4.826-4.315 8.835-11.483h-1.574l0.001 0.064h-0.293c-1.478 2.624-2.511 4.866-3.387 6.658 0.877-1.794 1.909-4.034 3.386-6.658h-2.161c-0.041 0-0.082 0-0.123 0-0.039 0-0.078 0-0.116 0h-0.005c-0.080 0-0.157-0.011-0.234-0.006-0 0.001-0.001-0.007-0.001-0.005-2.321 0.14-3.407 1.318-3.953 3.067-0.956 3.056-1.535 5.034-2.092 6.297-0 0 0-0.001-0-0 0 0.003-0.002 0.003-0.002 0.004v-0.003c-0.256 0.25-0.522 0.478-0.782 0.685-0.136 0.108-0.272 0.21-0.409 0.306 0.114 0.137 0.231 0.265 0.354 0.382 0.186 0.181 0.385 0.333 0.602 0.45-0 0-0.001 0-0.001 0-0.217-0.117-0.416-0.269-0.603-0.45-0.123-0.117-0.239-0.245-0.354-0.382 0 0 0 0 0 0 0.137-0.096 0.272-0.199 0.408-0.307-0.749-1.659-1.184-4.478-1.991-6.673 0.807 2.194 1.243 5.014 1.991 6.673 0.26-0.207 0.52-0.435 0.781-0.685-1.082-3.242-1.47-9.136-4.606-9.136-0.221 0-0.444 0.021-0.666 0.061 0.222-0.041 0.445-0.062 0.666-0.062l-1.233-0.017c0.196 0 0.381 0.055 0.557 0.055-0 0-0 0-0 0-0.176 0-0.361-0.055-0.556-0.055-0.017 0-0.034-0.004-0.051-0.003 0.017-0 0.034-0.006 0.051-0.006h-4.96c-0.028 0-0.056-0.004-0.085-0.004-2.706 0-6.435 5.059-8.115 11.524 0 0 0.122 0 0.323 0 0 0 0 0 0 0 0.232 0 0.95 0 0.95 0zM26.161 10.675c-0 0-0 0-0 0-0.807 0.254-1.401 0.694-1.842 1.277 0.441-0.583 1.034-1.023 1.842-1.277zM22.369 21.541c-0.008 0.004-0.015 0.008-0.023 0.012-0.011 0.006-0.023 0.011-0.034 0.017-0.001 0-0.002 0.001-0.002 0.001 0.020-0.010 0.039-0.020 0.059-0.029zM22.040 21.687c0.005-0.004 0.010-0.004 0.016-0.006-0.005 0.003-0.010 0.004-0.015 0.006-0.011 0.005-0.022 0.008-0.033 0.012 0.011-0.004 0.021-0.008 0.032-0.012zM22.001 21.703c0 0 0-0 0-0s-0.001 0-0.001 0c0-0 0-0 0.001-0zM21.751 21.787c0.019-0.006 0.036-0.011 0.054-0.016 0.009-0.004 0.018-0.007 0.027-0.009 0.011-0.004 0.021-0.007 0.030-0.011 0.011-0.004 0.022-0.006 0.031-0.010s0.017-0.006 0.026-0.010c0.021-0.008 0.042-0.014 0.064-0.022 0.003 0 0.006-0.001 0.008-0.003-0.002 0.001-0.005 0.002-0.007 0.003-0.021 0.008-0.042 0.014-0.063 0.022-0.009 0.004-0.018 0.006-0.026 0.009-0.009 0.004-0.020 0.007-0.031 0.010-0.009 0.004-0.020 0.006-0.031 0.011-0.009 0.004-0.018 0.005-0.027 0.009-0.019 0.005-0.036 0.010-0.054 0.016-0.001 0-0.003 0.001-0.004 0.001 0.001-0 0.002-0.001 0.003-0.001zM8.704 10.91v-0.008c0 0 0.006 0.008 0.007 0.008h0c-0.053 0-0.105 0.037-0.157 0.059 0.008-0.004 0.017-0.009 0.025-0.012-0.042 0.018-0.084 0.037-0.126 0.057-0.022 0.011-0.045 0.021-0.067 0.033zM8.832 10.846v0zM9.191 10.738c-0.007 0.004-0.012 0.019-0.018 0.019-0.044 0.011-0.088 0.023-0.132 0.035-0.005 0-0.009 0.004-0.015 0.005-0.012 0.003-0.024 0.007-0.037 0.011 0.013-0.004 0.025-0.011 0.037-0.013 0.006 0 0.011-0.005 0.015-0.005 0.044-0.012 0.088-0.024 0.132-0.035 0.006 0 0.011-0.018 0.018-0.018 0.012-0.004 0.024-0.020 0.037-0.021-0.013 0.001-0.025 0.021-0.037 0.023zM9.249 10.732c-0.006 0.004-0.013 0.008-0.019 0.010 0.006-0.004 0.012-0.011 0.019-0.013 0.013-0.004 0.025-0.014 0.039-0.014-0.014 0-0.026 0.015-0.039 0.017zM9.732 10.716c-0.024-0.004-0.047-0.002-0.070-0.002-0.001 0-0.002 0-0.002 0 0.023 0 0.046-0.003 0.070-0 0.003 0 0.005-0.001 0.008-0.001-0.002 0.001-0.003 0.003-0.006 0.003zM9.794 10.685c-0.058 0-0.115 0.012-0.174 0.016 0.008 0 0.016 0.010 0.024 0.012-0.015-0.002-0.030-0.011-0.045-0.012 0.007-0.001 0.014-0.005 0.021-0.005-0.004-0-0.004-0.002-0.008-0.002-0.005-0.004-0.012-0.006-0.012-0.006v0.005c-0.064 0.004-0.060 0.005-0.088 0.008l-0.004-0.005c-0.008 0-0.014 0.004-0.021 0.004-0.011 0.004-0.024 0.004-0.036 0.005-0.007 0-0.014 0-0.021 0.004-0.013 0.004-0.025 0.006-0.037 0.008-0.001 0-0.002 0.001-0.003 0.001 0.001 0 0.002 0 0.003 0 0.013 0 0.024-0.006 0.037-0.009 0.007 0 0.014-0.005 0.021-0.005 0.012 0 0.024-0.004 0.036-0.006 0.006 0 0.012-0 0.020-0.004 0.024-0.003 0.048-0.005 0.072-0.007 0.005 0 0.009 0.001 0.014 0.001 0.068-0.006 0.134-0.008 0.201-0.008zM9.955 10.755c-0.045-0.012-0.091-0.021-0.137-0.029-0.004 0-0.008-0.002-0.012-0.003 0.003 0.001 0.007 0.002 0.011 0.002 0.046 0.009 0.092 0.018 0.137 0.030 0.001 0 0.003 0.001 0.004 0.001-0.001-0-0.001-0-0.002-0zM10.934 11.537v0c-0 0-0 0.001-0.001 0.001-0.141-0.238-0.296-0.438-0.468-0.584 0.002 0.001 0.005 0.003 0.007 0.004 0.169 0.147 0.321 0.344 0.461 0.58 0-0 0 0-0 0zM11.154 11.961v0zM13.665 10.744c0.18-0.034 0.361-0.056 0.539-0.064-0.179 0.009-0.359 0.030-0.54 0.065zM11.904 12.446c-0.001-0.003-0.003-0.005-0.004-0.008 0.001 0.003 0.003 0.005 0.004 0.008v0zM14.209 10.947c-0.284 0.106-0.569 0.242-0.854 0.408 0.285-0.166 0.57-0.302 0.854-0.408 0.194-0.072 0.387-0.129 0.58-0.172-0.194 0.043-0.387 0.1-0.58 0.172zM14.94 10.743v0 0 0zM17.104 21.758c0.117-0.031 0.235-0.068 0.352-0.109 0 0 0 0 0 0-0.118 0.041-0.235 0.077-0.352 0.109zM20.136 21.561c-0 0-0 0-0 0-0.007 0.004-0.014 0.007-0.021 0.011 0.007-0.004 0.015-0.008 0.022-0.012zM20.762 21.884c-0.285-0.034-0.54-0.118-0.773-0.244 0.233 0.126 0.488 0.21 0.773 0.244 0.042 0.004 0.083 0.008 0.126 0.011-0.043-0.003-0.085-0.007-0.126-0.011zM20.742 21.035l0.001-0.005c0-0 0-0.001 0.001-0.001 0.157 0.267 0.331 0.487 0.527 0.639-0.196-0.149-0.371-0.364-0.528-0.633zM21.188 21.895c-0.008 0.004-0.015 0.004-0.023 0.004-0.001 0-0.001 0-0.002 0 0.008 0 0.016 0 0.023-0.004 0.015 0 0.030 0 0.046-0.004 0.001 0 0.002 0 0.002 0-0.016 0.004-0.031 0.004-0.046 0.004zM21.377 21.874c-0.017 0.003-0.035 0.004-0.053 0.008-0.005 0-0.010 0.004-0.015 0.004-0 0-0.004 0-0.004 0-0.016 0.002-0.033 0.005-0.049 0.005-0.001 0-0.002 0-0.002 0 0.016 0 0.033-0.004 0.049-0.005h0.004c0.005 0 0.010-0.004 0.015-0.004 0.018-0.004 0.036-0.006 0.053-0.008 0.002 0 0.003 0 0.004 0-0.001 0-0.001 0-0.002 0z"></path>
</svg>
