<?xml version="1.0" encoding="utf-8"?>
<!-- Generated by IcoMoon.io -->
<!DOCTYPE svg PUBLIC "-//W3C//DTD SVG 1.1//EN" "http://www.w3.org/Graphics/SVG/1.1/DTD/svg11.dtd">
<svg version="1.1" xmlns="http://www.w3.org/2000/svg" xmlns:xlink="http://www.w3.org/1999/xlink" width="32" height="32" viewBox="0 0 32 32">
<path fill="#444444" d="M15.43 3.426c-0.121 0.015-0.706 0.083-1.29 0.152-1.57 0.182-2.921 0.63-3.9 1.297-0.319 0.22-0.334 0.228-0.569 0.106-0.341-0.174-1.244-0.205-1.692-0.053-0.622 0.205-1.032 0.668-1.153 1.305-0.091 0.478 0.008 1.039 0.258 1.411 0.152 0.228 0.705 0.63 1.039 0.759 0.023 0.015-0.023 0.486-0.106 1.047-0.129 0.857-0.144 1.274-0.114 2.541 0.023 0.835 0.091 1.844 0.152 2.238 0.068 0.395 0.144 0.979 0.167 1.297l0.053 0.577-0.326 0.053c-0.516 0.076-1.305 0.501-1.388 0.736-0.099 0.281-0.008 0.546 0.288 0.865 0.303 0.319 0.485 0.311 0.994-0.030l0.303-0.205v3.49c0 3.467 0 3.505 0.175 3.922 0.228 0.569 0.698 1.282 1.153 1.775l0.379 0.395-0.379 0.243c-0.417 0.273-0.759 0.766-0.759 1.108 0 0.144 0.083 0.288 0.273 0.463 0.228 0.22 0.326 0.258 0.637 0.258 0.334 0 0.417-0.038 0.774-0.341 0.22-0.19 0.546-0.417 0.721-0.508l0.326-0.167 0.698 0.235c1.183 0.402 1.904 0.508 3.437 0.501 1.942-0.008 3.551-0.288 4.734-0.827 0.22-0.099 0.463-0.182 0.523-0.182 0.068 0 0.387 0.281 0.713 0.614 0.584 0.615 0.592 0.622 0.903 0.577 0.448-0.061 0.751-0.372 0.751-0.759 0-0.417-0.182-0.759-0.622-1.153l-0.372-0.334 0.356-0.478c0.675-0.918 1.062-1.927 1.328-3.46 0.152-0.918 0.182-2.671 0.084-4.628-0.030-0.508-0.046-0.926-0.046-0.926 0.008 0 0.167 0.083 0.341 0.19 0.44 0.25 0.706 0.243 0.948-0.015 0.22-0.235 0.281-0.432 0.243-0.789-0.030-0.326-0.326-0.531-1.024-0.721-0.281-0.068-0.531-0.144-0.554-0.167-0.023-0.015-0.061-1.381-0.091-3.035-0.053-3.095-0.053-3.141-0.417-4.704-0.023-0.099-0.008-0.167 0.053-0.167 0.19 0 0.766-0.478 0.941-0.781 0.372-0.622 0.326-1.419-0.114-2.026-0.455-0.63-1.441-0.85-2.375-0.539l-0.478 0.159-0.387-0.25c-0.539-0.364-1.449-0.728-2.253-0.903-0.66-0.144-2.777-0.25-3.338-0.167zM18.358 3.798c2.496 0.432 3.839 1.601 4.628 4.006 0.47 1.434 0.531 2.064 0.599 6.16 0.038 2.041 0.106 4.415 0.152 5.273s0.061 1.897 0.038 2.314c-0.099 1.51-0.432 2.906-0.918 3.831-0.326 0.622-0.956 1.411-1.184 1.479-0.099 0.030-0.311 0.182-0.478 0.341-0.872 0.827-2.762 1.335-5.235 1.419-1.51 0.046-2.397-0.061-3.573-0.433-0.66-0.212-0.789-0.288-1.092-0.599-0.379-0.402-0.728-0.615-1.017-0.615-0.379 0-1.396-1.32-1.715-2.215-0.228-0.645-0.266-2.261-0.152-5.94l0.099-3.217-0.182-1.426c-0.478-3.748-0.008-6.661 1.366-8.368 0.607-0.751 1.548-1.297 2.913-1.684 1.343-0.379 4.438-0.561 5.751-0.326zM23.593 4.905c0.956 0.486 1.001 1.995 0.084 2.58-0.19 0.121-0.364 0.22-0.387 0.22-0.030 0-0.121-0.212-0.212-0.463l-0.174-0.47 0.197-0.228c0.144-0.167 0.182-0.281 0.144-0.425-0.091-0.364-0.296-0.47-0.721-0.372-0.159 0.038-0.235-0.015-0.516-0.372-0.182-0.228-0.319-0.425-0.303-0.448 0.015-0.015 0.22-0.076 0.448-0.144 0.493-0.137 1.032-0.091 1.441 0.121zM9.239 5.133c0.212 0.046 0.402 0.114 0.425 0.144 0.023 0.038-0.106 0.258-0.281 0.486-0.311 0.402-0.341 0.417-0.599 0.379-0.235-0.038-0.296-0.015-0.432 0.159-0.212 0.273-0.212 0.432 0.015 0.69l0.175 0.212-0.144 0.44c-0.083 0.243-0.19 0.44-0.235 0.44-0.152 0-0.637-0.326-0.797-0.531-0.645-0.85-0.228-2.117 0.797-2.397 0.463-0.121 0.607-0.129 1.077-0.023zM24.678 16.225c0.523 0.197 0.774 0.47 0.698 0.766l-0.046 0.19-0.258-0.152c-0.152-0.091-0.281-0.121-0.303-0.076-0.030 0.038 0.015 0.091 0.099 0.121 0.243 0.076 0.349 0.243 0.235 0.379-0.152 0.182-0.478 0.137-0.857-0.121l-0.357-0.235v-0.523c0-0.493 0.008-0.523 0.174-0.516 0.091 0 0.372 0.076 0.614 0.167zM8.26 16.52c0 0.614-0.083 0.819-0.417 1.047-0.463 0.319-0.668 0.357-0.88 0.144-0.159-0.159-0.167-0.175-0.038-0.25 0.311-0.19 0.372-0.25 0.296-0.296-0.045-0.030-0.167 0.023-0.281 0.106-0.167 0.129-0.205 0.137-0.243 0.038-0.137-0.357 0.129-0.652 0.812-0.888 0.622-0.212 0.751-0.197 0.751 0.099zM22.425 27.195c0.402 0.296 0.751 0.971 0.652 1.267-0.106 0.319-0.197 0.288-0.402-0.144-0.106-0.212-0.228-0.402-0.273-0.41-0.046-0.015 0.015 0.174 0.144 0.425 0.121 0.25 0.197 0.485 0.167 0.531-0.023 0.046-0.159 0.083-0.303 0.083-0.212 0-0.319-0.076-0.721-0.531-0.25-0.288-0.531-0.546-0.614-0.569-0.228-0.076-0.175-0.22 0.197-0.561 0.425-0.387 0.713-0.41 1.153-0.091zM10.68 27.24c0.121 0.061 0.341 0.258 0.493 0.432l0.281 0.319-0.296 0.137c-0.159 0.076-0.493 0.311-0.743 0.523-0.508 0.432-0.698 0.501-1.017 0.372-0.197-0.083-0.212-0.106-0.144-0.288 0.046-0.114 0.167-0.319 0.273-0.455s0.175-0.273 0.152-0.296c-0.061-0.053-0.41 0.349-0.516 0.599-0.106 0.266-0.205 0.273-0.266 0.023-0.106-0.432 0.197-0.888 0.835-1.252 0.432-0.25 0.637-0.281 0.948-0.114zM18.176 4.746c-0.766 0.197-1.434 0.744-1.745 1.434-0.235 0.508-0.22 1.358 0.023 1.866 0.258 0.531 0.812 1.055 1.343 1.252 0.592 0.22 1.563 0.19 2.071-0.068 0.842-0.432 1.229-1.024 1.274-1.995 0.030-0.577 0.008-0.698-0.152-1.062-0.265-0.577-0.607-0.933-1.146-1.199-0.523-0.25-1.191-0.341-1.669-0.228zM19.663 5.034c1.282 0.569 1.768 2.147 1.032 3.315-0.698 1.1-2.496 1.305-3.52 0.402-0.88-0.774-1.032-1.95-0.379-2.906 0.622-0.91 1.859-1.259 2.868-0.812zM16.894 6.711c-0.614 0.546-0.015 1.517 0.804 1.29 0.303-0.083 0.576-0.432 0.576-0.736 0-0.69-0.85-1.032-1.381-0.554zM11.978 5.042c-0.607 0.19-1.206 0.69-1.502 1.252-0.175 0.326-0.205 0.485-0.205 1.032 0 0.531 0.030 0.713 0.182 1.017 0.721 1.464 2.67 1.836 3.877 0.751 0.584-0.523 0.797-0.979 0.797-1.73 0-0.516-0.030-0.675-0.212-1.039-0.417-0.85-1.259-1.358-2.238-1.343-0.281 0-0.592 0.030-0.698 0.061zM13.814 5.376c1.661 0.971 1.57 3.171-0.167 4.021-0.531 0.258-1.411 0.235-1.988-0.046-1.722-0.85-1.699-3.217 0.046-4.051 0.341-0.159 0.47-0.182 1.070-0.159 0.584 0.023 0.743 0.061 1.039 0.235zM11.181 6.696c-0.228 0.053-0.546 0.387-0.592 0.615-0.053 0.266 0.106 0.645 0.334 0.804 0.099 0.068 0.319 0.121 0.493 0.121 0.88 0 1.1-1.146 0.288-1.487-0.265-0.114-0.273-0.114-0.524-0.053zM15.452 8.759c-0.395 0.083-0.668 0.281-0.721 0.546-0.023 0.144-0.121 0.266-0.25 0.334-0.478 0.25-0.728 0.781-0.561 1.214 0.068 0.159 0.425 0.341 0.698 0.341h0.22l-0.068 0.395c-0.083 0.501-0.023 0.857 0.175 1.055s0.47 0.182 0.721-0.038l0.212-0.175 0.129 0.152c0.159 0.205 0.622 0.205 0.842 0 0.137-0.121 0.152-0.205 0.121-0.766l-0.030-0.622h0.235c0.865 0 0.85-1.13-0.023-1.555-0.212-0.099-0.319-0.197-0.319-0.303-0.008-0.22-0.167-0.402-0.478-0.531-0.296-0.121-0.455-0.129-0.903-0.046zM17.053 9.753c0.41 0.205 0.614 0.486 0.614 0.85 0 0.266-0.030 0.311-0.25 0.402-0.266 0.114-0.592 0.068-1.214-0.152-0.341-0.121-0.379-0.121-0.88 0.030-0.903 0.273-1.297 0.167-1.312-0.349-0.008-0.303 0.121-0.508 0.44-0.713 0.266-0.159 0.281-0.159 0.546-0.030 0.152 0.068 0.448 0.144 0.66 0.167 0.311 0.030 0.44 0 0.721-0.152 0.19-0.106 0.349-0.197 0.364-0.197 0.008-0.008 0.152 0.061 0.311 0.144zM15.801 11.589c-0.061 0.804-0.114 0.948-0.372 1.017-0.455 0.114-0.622-0.197-0.524-0.933l0.068-0.516 0.379-0.129c0.212-0.068 0.402-0.129 0.432-0.137 0.030 0 0.038 0.319 0.015 0.698zM16.386 11.050c0.379 0.129 0.448 0.258 0.448 0.842 0 0.455-0.023 0.523-0.182 0.63-0.258 0.167-0.569 0.076-0.622-0.182-0.023-0.106-0.061-0.25-0.076-0.311-0.053-0.152 0.053-1.062 0.121-1.062 0.030 0 0.167 0.038 0.311 0.083z"></path>
</svg>
