<?xml version="1.0" encoding="utf-8"?>
<!-- Generated by IcoMoon.io -->
<!DOCTYPE svg PUBLIC "-//W3C//DTD SVG 1.1//EN" "http://www.w3.org/Graphics/SVG/1.1/DTD/svg11.dtd">
<svg version="1.1" xmlns="http://www.w3.org/2000/svg" xmlns:xlink="http://www.w3.org/1999/xlink" width="32" height="32" viewBox="0 0 32 32">
<path fill="#444444" d="M12.557 23.22c0 0-0.982 0.571 0.699 0.765 2.037 0.232 3.079 0.199 5.324-0.226 0 0 0.59 0.37 1.415 0.691-5.033 2.157-11.39-0.125-7.437-1.23zM11.942 20.405c0 0-1.102 0.816 0.581 0.99 2.176 0.224 3.895 0.243 6.869-0.33 0 0 0.411 0.417 1.058 0.645-6.085 1.779-12.863 0.14-8.508-1.305zM17.127 15.63c1.24 1.428-0.326 2.713-0.326 2.713s3.149-1.625 1.703-3.661c-1.351-1.898-2.386-2.841 3.221-6.093 0 0-8.801 2.198-4.598 7.042zM23.783 25.302c0 0 0.727 0.599-0.801 1.062-2.905 0.88-12.091 1.146-14.643 0.035-0.917-0.399 0.803-0.953 1.344-1.069 0.564-0.122 0.887-0.1 0.887-0.1-1.020-0.719-6.594 1.411-2.831 2.021 10.262 1.664 18.706-0.749 16.044-1.95zM13.029 17.489c0 0-4.673 1.11-1.655 1.513 1.274 0.171 3.814 0.132 6.181-0.066 1.934-0.163 3.876-0.51 3.876-0.51s-0.682 0.292-1.175 0.629c-4.745 1.248-13.911 0.667-11.272-0.609 2.232-1.079 4.046-0.956 4.046-0.956zM21.412 22.174c4.824-2.506 2.593-4.915 1.037-4.591-0.382 0.079-0.552 0.148-0.552 0.148s0.142-0.222 0.412-0.318c3.079-1.083 5.448 3.193-0.994 4.887-0 0 0.075-0.067 0.097-0.126zM18.503 3.337c0 0 2.671 2.672-2.534 6.781-4.174 3.296-0.952 5.176-0.002 7.323-2.436-2.198-4.224-4.133-3.025-5.934 1.761-2.644 6.638-3.925 5.56-8.17zM13.503 28.966c4.63 0.296 11.74-0.164 11.908-2.355 0 0-0.324 0.831-3.826 1.49-3.952 0.744-8.826 0.657-11.716 0.18 0 0 0.592 0.49 3.635 0.685z"></path>
</svg>
