<?xml version="1.0" encoding="utf-8"?>
<!-- Generated by IcoMoon.io -->
<!DOCTYPE svg PUBLIC "-//W3C//DTD SVG 1.1//EN" "http://www.w3.org/Graphics/SVG/1.1/DTD/svg11.dtd">
<svg version="1.1" xmlns="http://www.w3.org/2000/svg" xmlns:xlink="http://www.w3.org/1999/xlink" width="32" height="32" viewBox="0 0 32 32">
<path fill="#444444" d="M16.392 2.991c-0.627 0.053-1.097 0.14-1.539 0.283-0.27 0.088-0.859 0.311-1.073 0.406-0.173 0.076-0.928 0.491-1.406 0.77-0.834 0.488-1.265 0.952-1.466 1.582-0.040 0.123-0.057 0.153-0.097 0.175-0.198 0.108-0.386 0.276-0.513 0.459-0.195 0.285-0.335 0.726-0.379 1.198-0.010 0.11-0.023 0.238-0.027 0.286l-0.008 0.086-0.195 0.171c-0.536 0.473-1.11 1.118-1.534 1.727-0.879 1.261-1.469 2.767-1.679 4.277-0.075 0.544-0.092 0.8-0.092 1.423s0.017 0.878 0.092 1.423c0.136 0.985 0.453 2.018 0.897 2.94 0.521 1.080 1.288 2.118 2.147 2.909l0.245 0.225 0.020 0.313c0.012 0.171 0.028 0.517 0.035 0.769 0.018 0.582 0.042 0.682 0.186 0.805 0.083 0.071 0.216 0.136 0.488 0.238 0.11 0.042 0.458 0.201 0.774 0.354 0.802 0.391 1.062 0.496 1.461 0.592 0.28 0.068 0.344 0.076 0.709 0.088l0.349 0.010 0.113 0.391c0.205 0.699 0.376 1.266 0.471 1.556 0.118 0.358 0.273 0.777 0.298 0.8 0.025 0.027 0.271 0.1 0.529 0.158 0.93 0.21 2.38 0.238 3.766 0.072 0.469-0.057 0.792-0.233 0.907-0.494 0.030-0.067 0.032-0.090 0.017-0.19-0.008-0.062-0.022-0.208-0.027-0.323l-0.012-0.21 0.148-0.028c0.484-0.093 0.726-0.22 0.832-0.436 0.035-0.073 0.045-0.121 0.052-0.261 0.012-0.215-0.008-0.353-0.113-0.819-0.142-0.614-0.17-0.847-0.133-1.068l0.021-0.12 0.105-0.035c0.225-0.075 0.325-0.186 0.325-0.364v-0.086l0.105-0.048c0.25-0.113 0.524-0.165 0.927-0.178l0.291-0.008 0.047 0.082c0.027 0.043 0.075 0.113 0.11 0.153 0.062 0.072 0.065 0.073 0.236 0.103 0.523 0.090 1.060 0.091 1.469 0.005 0.318-0.067 0.424-0.12 0.586-0.293 0.301-0.325 0.509-0.949 0.508-1.536 0-0.26-0.015-0.351-0.12-0.716-0.146-0.507-0.336-1.023-0.478-1.298-0.088-0.171-0.225-0.321-0.373-0.409-0.053-0.030-0.096-0.062-0.096-0.070 0-0.007 0.038-0.080 0.085-0.163 0.133-0.236 0.399-0.797 0.513-1.075 0.389-0.97 0.612-1.932 0.702-3.034 0.025-0.309 0.025-1.135 0-1.448-0.088-1.093-0.311-2.060-0.702-3.033-0.13-0.323-0.454-0.983-0.631-1.285-0.403-0.684-0.894-1.328-1.448-1.897l-0.259-0.266-0.030-0.329c-0.101-1.155-0.373-2.098-0.782-2.724-0.298-0.456-0.913-1.115-1.466-1.569-0.657-0.541-1.453-0.845-2.571-0.985-0.198-0.025-1.13-0.047-1.315-0.032zM17.649 3.619c0.637 0.103 1.268 0.301 1.835 0.579 0.399 0.196 0.601 0.344 0.927 0.681 0.228 0.236 0.812 0.963 0.845 1.053 0.012 0.028 0.005 0.030-0.067 0.020-0.304-0.040-0.454-0.028-0.629 0.055-0.215 0.1-0.336 0.27-0.345 0.481-0.002 0.038 0.002 0.075 0.007 0.080s0.037-0.010 0.072-0.033c0.131-0.090 0.233-0.117 0.449-0.117 0.181 0 0.215 0.005 0.358 0.055 0.228 0.077 0.398 0.183 0.574 0.359 0.321 0.319 0.431 0.699 0.491 1.706 0.030 0.486 0.040 1.459 0.018 1.764-0.095 1.343-0.451 2.588-1.008 3.534-0.123 0.21-0.552 0.852-0.656 0.982-0.138 0.171-0.318 0.333-0.518 0.463-0.601 0.391-1.233 0.646-1.824 0.739-0.241 0.037-0.691 0.037-0.905 0-0.228-0.040-0.567-0.16-0.874-0.309-0.8-0.391-1.338-0.909-2.201-2.122l-0.106-0.15 0.010 0.083c0.051 0.373 0.268 0.755 0.707 1.256 0.507 0.576 0.879 0.915 1.2 1.095 0.060 0.033 0.12 0.072 0.133 0.085 0.022 0.020 0.013 0.022-0.058 0.012-0.047-0.005-0.176-0.015-0.291-0.020-0.338-0.017-0.562 0.053-0.674 0.208l-0.050 0.070-0.175-0.010c-0.97-0.055-1.557-0.235-1.907-0.586-0.381-0.381-0.927-1.646-1.047-2.428-0.040-0.253-0.030-0.278 0.16-0.484 0.21-0.226 0.246-0.309 0.196-0.454-0.018-0.052-0.022-0.053-0.093-0.043-0.097 0.013-0.151 0.042-0.329 0.178-0.082 0.062-0.171 0.122-0.2 0.131-0.155 0.060-0.409 0.050-0.589-0.023-0.448-0.181-0.852-0.767-0.973-1.408-0.035-0.181-0.035-0.506 0-0.647 0.080-0.325 0.293-0.617 0.566-0.777 0.198-0.117 0.471-0.17 0.706-0.142 0.376 0.048 0.584 0.3 0.737 0.895l0.055 0.213 0.18-0.003c0.298-0.003 0.539-0.083 0.631-0.208 0.033-0.043 0.033-0.048 0.005-0.233-0.017-0.103-0.061-0.316-0.101-0.471-0.19-0.751-0.188-0.87 0.032-1.922 0.102-0.486 0.128-0.686 0.13-0.94 0.002-0.238-0.028-0.426-0.095-0.624-0.023-0.067-0.042-0.141-0.042-0.165 0-0.055 0.111-0.258 0.25-0.454 0.138-0.198 0.576-0.639 0.832-0.835 0.243-0.188 0.691-0.484 0.982-0.649 0.869-0.493 1.176-0.581 1.988-0.567 0.344 0.005 0.461 0.013 0.682 0.048zM14.321 4.080c0.088 0.070 0.020 0.193-0.135 0.243-0.060 0.018-0.113 0.053-0.178 0.115-0.052 0.048-0.17 0.146-0.265 0.216-0.261 0.196-0.348 0.295-0.544 0.621-0.213 0.353-0.316 0.489-0.413 0.551-0.098 0.063-0.188 0.075-0.378 0.052-0.2-0.027-0.303-0.010-0.662 0.108-0.313 0.101-0.429 0.125-0.429 0.088 0-0.013 0.037-0.087 0.083-0.161 0.321-0.541 0.924-1.047 1.722-1.448 0.288-0.145 0.461-0.218 0.782-0.33 0.28-0.098 0.348-0.106 0.416-0.055zM12.617 6.27c0.065 0.171 0.087 0.304 0.095 0.576 0.008 0.316-0.007 0.496-0.088 1.018-0.090 0.586-0.098 0.667-0.098 0.965 0 0.315 0.012 0.393 0.108 0.721 0.075 0.256 0.098 0.454 0.065 0.536-0.023 0.056-0.077 0.091-0.168 0.108l-0.060 0.012-0.012-0.113c-0.030-0.298-0.18-0.566-0.423-0.759-0.24-0.19-0.504-0.283-0.81-0.283-0.213 0-0.363 0.033-0.572 0.13-0.075 0.033-0.138 0.058-0.143 0.053-0.022-0.022-0.047-0.471-0.048-0.845 0-0.341 0.005-0.458 0.030-0.589 0.082-0.444 0.225-0.699 0.547-0.97 0.338-0.283 0.712-0.464 1.138-0.553 0.211-0.043 0.23-0.047 0.335-0.050 0.080-0.002 0.088 0.002 0.105 0.043zM9.948 8.998c0.017 0.015 0.027 0.058 0.028 0.115 0 0.050 0.007 0.091 0.015 0.091 0.007 0 0.012 0.037 0.012 0.083 0 0.045-0.007 0.083-0.015 0.083-0.007 0-0.010 0.018-0.007 0.038 0.005 0.023-0.003 0.052-0.018 0.067-0.015 0.013-0.027 0.033-0.027 0.043s-0.007 0.018-0.017 0.018c-0.008 0-0.017 0.010-0.017 0.023s-0.012 0.027-0.025 0.033c-0.013 0.005-0.025 0.020-0.025 0.033s-0.010 0.032-0.023 0.038c-0.022 0.013-0.143 0.361-0.143 0.413 0 0.013-0.005 0.025-0.012 0.025-0.008 0-0.013 0.025-0.015 0.053 0 0.030-0.010 0.145-0.022 0.255-0.052 0.486 0.083 1.158 0.334 1.664 0.288 0.578 0.782 0.983 1.336 1.097l0.1 0.022 0.005 0.065c0.025 0.354 0.175 0.795 0.378 1.113 0.208 0.326 0.273 0.519 0.225 0.666-0.035 0.108-0.13 0.178-0.591 0.441-0.975 0.557-1.657 0.968-1.98 1.196-0.091 0.065-0.301 0.188-0.464 0.271-0.426 0.22-0.557 0.353-0.586 0.596-0.020 0.171 0.065 0.512 0.253 1.023 0.060 0.165 0.153 0.424 0.206 0.576 0.053 0.153 0.168 0.459 0.255 0.682 0.226 0.582 0.285 0.779 0.393 1.301 0.073 0.348 0.201 1.201 0.201 1.329 0 0.095-0.473-0.418-0.87-0.944-0.85-1.125-1.434-2.43-1.707-3.814-0.070-0.354-0.123-0.717-0.112-0.764 0.007-0.025 0.003-0.040-0.008-0.040-0.013 0-0.017-0.025-0.010-0.083 0.007-0.055 0.003-0.083-0.008-0.083s-0.015-0.035-0.007-0.108c0.008-0.076 0.005-0.108-0.008-0.108s-0.015-0.043-0.007-0.158c0.008-0.11 0.007-0.158-0.007-0.158s-0.018-0.11-0.018-0.358c0-0.248 0.005-0.358 0.018-0.358s0.015-0.048 0.007-0.158c-0.008-0.115-0.007-0.158 0.007-0.158s0.017-0.032 0.008-0.108c-0.008-0.073-0.005-0.108 0.007-0.108s0.015-0.028 0.008-0.083c-0.007-0.052-0.003-0.083 0.007-0.083 0.012 0 0.015-0.030 0.008-0.075-0.003-0.042 0-0.075 0.008-0.075s0.012-0.027 0.008-0.058c-0.003-0.032 0-0.058 0.008-0.058s0.012-0.027 0.008-0.058c-0.003-0.032 0-0.058 0.008-0.058s0.013-0.023 0.008-0.050c-0.003-0.028 0-0.050 0.007-0.050 0.008 0 0.017-0.043 0.018-0.095 0.002-0.053 0.010-0.098 0.018-0.101 0.008-0.002 0.012-0.023 0.007-0.045-0.003-0.023 0-0.042 0.007-0.042 0.008 0 0.017-0.035 0.017-0.078 0.002-0.043 0.010-0.082 0.020-0.085s0.015-0.015 0.010-0.027c-0.023-0.058 0.285-1.138 0.328-1.155 0.008-0.003 0.015-0.022 0.015-0.040 0-0.048 0.068-0.23 0.085-0.23 0.008 0 0.015-0.018 0.015-0.042s0.008-0.042 0.017-0.042c0.010 0 0.017-0.018 0.017-0.042s0.008-0.042 0.017-0.042c0.010 0 0.017-0.018 0.017-0.040 0-0.023 0.012-0.052 0.025-0.067 0.013-0.013 0.025-0.033 0.025-0.045 0-0.035 0.040-0.131 0.053-0.131 0.007 0 0.013-0.012 0.013-0.025 0-0.032 0.087-0.213 0.108-0.228 0.010-0.007 0.035-0.052 0.057-0.1 0.1-0.23 0.125-0.278 0.147-0.286 0.012-0.005 0.022-0.025 0.022-0.043s0.015-0.047 0.033-0.062c0.018-0.017 0.033-0.042 0.033-0.058 0-0.015 0.013-0.042 0.032-0.058 0.017-0.017 0.035-0.050 0.042-0.076 0.005-0.025 0.018-0.045 0.027-0.045 0.010 0 0.017-0.012 0.017-0.025s0.007-0.025 0.015-0.025c0.008 0 0.020-0.018 0.025-0.042 0.007-0.023 0.018-0.042 0.027-0.042 0.010 0 0.017-0.012 0.017-0.025s0.007-0.025 0.015-0.025c0.008 0 0.020-0.018 0.025-0.042 0.007-0.023 0.018-0.042 0.027-0.042 0.010 0 0.017-0.012 0.017-0.025s0.008-0.025 0.017-0.025c0.010 0 0.017-0.012 0.017-0.025s0.008-0.025 0.017-0.025c0.010 0 0.017-0.012 0.017-0.025s0.008-0.025 0.017-0.025c0.010 0 0.017-0.012 0.017-0.025 0-0.015 0.012-0.030 0.025-0.035 0.013-0.007 0.025-0.020 0.025-0.033s0.008-0.023 0.017-0.023c0.010 0 0.017-0.010 0.017-0.023s0.012-0.027 0.025-0.033c0.013-0.005 0.025-0.020 0.025-0.035 0-0.013 0.008-0.025 0.017-0.025 0.010 0 0.017-0.010 0.017-0.023s0.012-0.027 0.025-0.033c0.013-0.005 0.025-0.020 0.025-0.033 0-0.012 0.012-0.027 0.025-0.033 0.013-0.005 0.025-0.020 0.025-0.033 0-0.012 0.012-0.027 0.025-0.033 0.013-0.005 0.025-0.020 0.025-0.033 0-0.015 0.015-0.033 0.033-0.043s0.033-0.027 0.033-0.038 0.015-0.030 0.033-0.042c0.018-0.012 0.033-0.030 0.033-0.042s0.015-0.030 0.033-0.042c0.018-0.012 0.033-0.030 0.033-0.042s0.023-0.038 0.050-0.058c0.028-0.022 0.050-0.046 0.050-0.058s0.027-0.042 0.058-0.067c0.032-0.025 0.058-0.055 0.058-0.065s0.045-0.060 0.1-0.108c0.055-0.050 0.1-0.098 0.1-0.107 0-0.023 0.321-0.348 0.343-0.348 0.012 0 0.023-0.015 0.028-0.033 0.010-0.040 0.038-0.043 0.073-0.007zM22.807 9.715c1.236 1.444 1.979 3.175 2.198 5.13 0.035 0.326 0.050 1.285 0.025 1.657-0.083 1.198-0.383 2.336-0.895 3.418-0.098 0.205-0.323 0.624-0.409 0.759l-0.043 0.068-0.161 0.022c-0.416 0.052-1.018 0.255-1.554 0.524-0.161 0.081-0.183 0.087-0.183 0.050 0-0.013 0.055-0.176 0.123-0.361 0.255-0.699 0.504-1.451 0.777-2.343 0.083-0.27 0.218-0.704 0.3-0.965 0.181-0.577 0.22-0.749 0.211-0.965-0.010-0.323-0.11-0.434-1.243-1.408-0.314-0.27-0.564-0.518-0.609-0.607-0.065-0.125-0.005-0.311 0.226-0.702 0.175-0.294 0.268-0.499 0.379-0.837 0.25-0.749 0.429-1.569 0.524-2.395 0.037-0.305 0.076-0.839 0.076-1.007 0-0.175 0.015-0.266 0.041-0.266 0.010 0 0.108 0.103 0.216 0.228zM21.043 15.262c0.055 0.047 0.291 0.271 0.524 0.499s0.508 0.478 0.607 0.556c0.268 0.21 0.398 0.341 0.459 0.468 0.053 0.106 0.053 0.108 0.043 0.294-0.012 0.193-0.070 0.488-0.203 1.040-0.171 0.701-0.449 1.529-0.86 2.558-0.268 0.669-0.328 0.76-0.534 0.82-0.17 0.048-0.206 0.053-0.652 0.070-0.411 0.017-0.549 0.037-0.674 0.1-0.078 0.040-0.1 0.042-0.1 0.007s0.118-0.236 0.749-1.271c0.492-0.807 0.854-1.413 0.92-1.543 0.025-0.045 0.023-0.053-0.005-0.098-0.017-0.027-0.078-0.103-0.138-0.17-0.108-0.122-0.162-0.208-0.162-0.261 0-0.015 0.027-0.105 0.057-0.196 0.235-0.691 0.115-1.819-0.233-2.207-0.076-0.085-0.21-0.168-0.27-0.168-0.045 0-0.17-0.087-0.17-0.118 0-0.017 0.073-0.085 0.171-0.161 0.093-0.072 0.203-0.17 0.245-0.216 0.042-0.045 0.087-0.083 0.1-0.085 0.013 0 0.070 0.037 0.125 0.083zM12.377 15.763c0.041 0.040 0.175 0.183 0.293 0.321 0.118 0.137 0.258 0.298 0.309 0.356 0.17 0.195 0.552 0.424 1.401 0.84l0.524 0.258 0.022 0.135c0.052 0.334 0.356 1.391 0.476 1.642 0.158 0.336 0.348 0.434 0.637 0.329 0.063-0.023 0.125-0.042 0.135-0.042 0.058 0-0.013 0.16-0.156 0.349-0.188 0.25-0.228 0.409-0.138 0.546 0.048 0.073 0.198 0.178 0.404 0.283 0.506 0.26 1.118 0.552 1.419 0.677 0.193 0.080 0.353 0.156 0.353 0.166 0 0.015-0.073 0.023-0.261 0.032-1.396 0.058-2.22 0.123-3.523 0.278-0.368 0.043-0.591 0.063-0.606 0.053-0.038-0.023-0.083-0.16-0.103-0.308-0.028-0.23-0.020-0.958 0.017-1.428 0.018-0.233 0.033-0.489 0.033-0.567 0-0.419-0.201-0.416-0.278 0.005-0.027 0.155-0.023 0.276 0.028 0.835 0.037 0.378 0.043 0.835 0.017 1.008-0.010 0.060-0.032 0.158-0.052 0.22-0.030 0.105-0.037 0.113-0.078 0.113-0.068-0.002-0.173-0.055-0.354-0.183-0.215-0.151-0.298-0.193-0.316-0.163-0.040 0.062-0.002 0.166 0.107 0.293 0.105 0.12 0.121 0.225 0.046 0.308-0.038 0.047-0.070 0.058-0.205 0.087-0.218 0.047-0.313 0.116-0.313 0.233 0 0.040 0.003 0.042 0.105 0.042 0.057 0 0.246-0.008 0.423-0.020 0.319-0.018 0.477-0.010 0.639 0.037l0.060 0.017 0.012 0.138c0.037 0.434 0.173 1.564 0.311 2.544 0.053 0.391 0.098 0.719 0.098 0.727 0 0.040-0.418 0-0.765-0.073-0.559-0.118-1.015-0.305-1.955-0.799-0.301-0.158-0.607-0.316-0.677-0.351l-0.13-0.063v-0.151c0-0.346-0.067-1.27-0.135-1.889-0.191-1.741-0.584-3.33-1.132-4.579-0.063-0.143-0.115-0.271-0.115-0.283 0-0.013 0.155-0.14 0.344-0.281 1.102-0.827 1.845-1.291 2.643-1.649 0.138-0.062 0.275-0.111 0.305-0.113 0.042 0 0.073 0.017 0.132 0.070zM20.531 16.283c0.17 0.087 0.29 0.476 0.341 1.101 0.027 0.341-0.022 0.674-0.116 0.802l-0.030 0.038-0.273-0.018c-0.441-0.028-1-0.111-1.263-0.188l-0.073-0.020 0.002-0.258c0.002-0.141 0.003-0.263 0.003-0.27 0-0.017 0.115-0.073 0.175-0.087 0.065-0.013 0.253-0.032 0.313-0.030 0.025 0.002 0.045-0.005 0.045-0.012 0-0.017-0.181-0.070-0.275-0.078-0.037-0.005-0.076-0.012-0.088-0.015-0.010-0.003-0.055 0-0.098 0.007-0.103 0.020-0.128 0.003-0.155-0.093-0.012-0.043-0.037-0.108-0.053-0.145-0.027-0.053-0.028-0.067-0.010-0.078 0.012-0.008 0.028-0.015 0.037-0.015 0.007 0 0.145-0.086 0.308-0.195 0.488-0.321 0.697-0.436 0.854-0.462 0.030-0.007 0.055-0.012 0.057-0.013 0.017-0.017 0.26 0.007 0.301 0.028zM19.271 16.284c0 0.013-0.015 0.032-0.032 0.042-0.018 0.008-0.17 0.125-0.336 0.258l-0.305 0.241-0.093 0.003c-0.356 0.012-0.627-0.032-0.837-0.133-0.161-0.080-0.328-0.195-0.328-0.228s0.075-0.048 0.13-0.027c0.083 0.033 0.276 0.068 0.393 0.068 0.161 0 0.423-0.042 0.75-0.12 0.273-0.065 0.567-0.125 0.629-0.128 0.015-0.002 0.028 0.010 0.028 0.023zM13.785 16.366c0.121 0.040 0.334 0.072 0.681 0.101 0.473 0.038 0.463 0.037 0.463 0.095 0 0.027-0.015 0.107-0.032 0.176-0.018 0.072-0.038 0.168-0.045 0.215-0.010 0.082-0.015 0.088-0.055 0.088-0.076 0-0.373-0.080-0.559-0.148-0.451-0.17-0.721-0.379-0.682-0.531 0.020-0.078 0.038-0.088 0.097-0.053 0.030 0.017 0.090 0.042 0.133 0.057zM15.822 16.424c0.018 0.008 0.037 0.013 0.042 0.010 0.023-0.023 0.677 0.193 0.904 0.299 0.349 0.165 0.441 0.213 0.626 0.335 0.105 0.070 0.283 0.138 0.381 0.148 0.023 0.002 0.050 0.005 0.060 0.005 0.010 0.002 0.018 0.033 0.020 0.068 0.003 0.062-0.002 0.068-0.073 0.108s-0.228 0.095-0.253 0.090c-0.012-0.002-0.060 0.010-0.25 0.063-0.088 0.025-0.108 0.067-0.023 0.050 0.097-0.020 0.582 0.117 0.632 0.178 0.010 0.012 0.013 0.085 0.008 0.186l-0.010 0.168-0.068 0.048c-0.037 0.028-0.195 0.155-0.351 0.285-0.155 0.128-0.343 0.278-0.416 0.329-0.309 0.223-0.968 0.476-1.241 0.476-0.080 0-0.098-0.007-0.138-0.048-0.027-0.028-0.050-0.067-0.053-0.088-0.005-0.035-0.107-0.326-0.141-0.404-0.072-0.162-0.191-0.524-0.208-0.629-0.005-0.030-0.012-0.072-0.017-0.095-0.038-0.191-0.057-0.686-0.033-0.948 0.005-0.068 0.010-0.136 0.012-0.15 0.010-0.123 0.105-0.353 0.173-0.416 0.070-0.065 0.153-0.093 0.275-0.090 0.062 0.002 0.126 0.012 0.145 0.022zM18.569 17.141c0.091 0.040 0.111 0.062 0.161 0.17 0.062 0.132 0.058 0.309-0.007 0.431-0.067 0.13-0.163 0.18-0.338 0.181-0.203 0-0.198 0.003-0.251-0.24-0.027-0.115-0.042-0.218-0.037-0.226 0.005-0.010 0.002-0.017-0.007-0.017-0.012 0-0.018-0.042-0.018-0.105 0-0.097 0.003-0.105 0.047-0.127 0.21-0.105 0.324-0.121 0.449-0.068zM18.932 18.188c0.038 0.018 0.13 0.073 0.203 0.125 0.165 0.115 0.291 0.175 0.401 0.188l0.085 0.010v0.1c0 0.056-0.007 0.185-0.017 0.285-0.008 0.102-0.023 0.368-0.033 0.592-0.025 0.567-0.053 0.845-0.135 1.348-0.035 0.223-0.088 0.408-0.116 0.413-0.032 0.005-0.225-0.388-0.506-1.037-0.354-0.817-0.552-1.193-0.8-1.527-0.060-0.082-0.106-0.158-0.103-0.17 0.003-0.013 0.043-0.068 0.088-0.125l0.083-0.102 0.075 0.012c0.123 0.018 0.173 0.010 0.353-0.068 0.196-0.085 0.306-0.096 0.423-0.043zM20.478 18.481c0.125 0.033 0.271 0.111 0.369 0.198 0.1 0.088 0.205 0.221 0.205 0.26 0 0.033-0.496 0.895-0.79 1.374-0.281 0.458-0.666 1.008-0.717 1.028-0.033 0.013-0.030-0.010 0.027-0.228 0.12-0.468 0.216-1.157 0.275-1.959 0.013-0.188 0.025-0.403 0.025-0.479 0-0.135 0.002-0.138 0.047-0.155 0.176-0.068 0.393-0.083 0.561-0.040zM17.71 18.9c0.359 0.508 0.581 0.935 1.038 2.022 0.095 0.228 0.173 0.424 0.173 0.438 0 0.040-0.048 0.030-0.336-0.068-0.516-0.178-0.995-0.381-1.563-0.664-0.398-0.198-0.78-0.406-0.78-0.422 0-0.007 0.015-0.062 0.035-0.12 0.090-0.278 0.283-0.547 0.554-0.776 0.16-0.135 0.734-0.536 0.769-0.537 0.010 0 0.060 0.058 0.11 0.128zM23.987 21.283c0.171 0.083 0.344 0.255 0.426 0.424 0.105 0.216 0.216 0.592 0.378 1.258 0.067 0.276 0.075 0.334 0.083 0.566 0.007 0.225 0.003 0.276-0.027 0.404-0.087 0.366-0.296 0.647-0.579 0.78-0.278 0.131-0.979 0.185-1.338 0.103-0.092-0.020-0.115-0.032-0.115-0.057 0-0.053 0.213-0.12 0.612-0.193 0.321-0.058 0.468-0.092 0.478-0.108 0.008-0.013-0.023-0.023-0.2-0.067-0.105-0.027-0.636-0.027-0.94-0.002-0.123 0.012-0.346 0.025-0.494 0.030l-0.268 0.012-0.010-0.090c-0.005-0.050-0.033-0.323-0.062-0.606-0.072-0.732-0.146-1.208-0.241-1.539l-0.027-0.091 0.072-0.062c0.138-0.118 0.456-0.26 1.027-0.453 0.323-0.11 0.531-0.195 0.661-0.271 0.153-0.090 0.203-0.105 0.333-0.1 0.090 0.005 0.143 0.018 0.231 0.060zM21.218 22.142c0.063 0.038 0.22 0.463 0.291 0.782 0.081 0.366 0.15 1.057 0.138 1.403l-0.005 0.171-0.216 0.073c-0.118 0.040-0.263 0.078-0.319 0.083l-0.102 0.012-0.010-0.072c-0.005-0.040-0.022-0.19-0.035-0.331-0.015-0.141-0.072-0.546-0.127-0.899-0.1-0.647-0.165-1.117-0.165-1.19 0-0.038 0.007-0.040 0.13-0.047 0.171-0.010 0.394-0.002 0.419 0.013zM17.865 22.15c0.381 0.023 1.067 0.102 1.102 0.125 0.008 0.005 0.053 0.378 0.070 0.574 0.023 0.273 0.032 0.426 0.060 1.123 0.025 0.562 0.032 0.656 0.083 1.198 0.032 0.333 0.055 0.769 0.075 1.423 0.030 0.982 0.067 1.464 0.143 1.92 0.022 0.136 0.038 0.25 0.037 0.251-0.017 0.010-0.285 0.078-0.446 0.115-0.478 0.105-0.945 0.15-1.523 0.15-0.671-0.002-1.181-0.052-1.789-0.173-0.275-0.055-0.724-0.168-0.74-0.186-0.003-0.003-0.053-0.163-0.113-0.356-0.428-1.38-0.727-2.737-0.959-4.341-0.093-0.637-0.188-1.459-0.173-1.473 0.018-0.017 0.88-0.156 1.27-0.208 0.537-0.068 1.142-0.121 1.672-0.146 0.263-0.013 0.994-0.010 1.231 0.005zM20.123 22.258c0.090 0.334 0.15 0.819 0.23 1.864 0.028 0.356 0.057 0.709 0.065 0.782 0.010 0.087 0.010 0.136-0.002 0.143-0.017 0.010-0.479 0.095-0.79 0.145-0.125 0.020-0.188 0.023-0.188 0.013s-0.012-0.165-0.025-0.343c-0.055-0.73-0.076-1.208-0.087-1.877-0.005-0.386-0.005-0.702 0-0.702s0.057-0.012 0.113-0.027c0.125-0.032 0.353-0.053 0.537-0.050 0.133 0.002 0.133 0.002 0.146 0.052zM20.080 25.588c0.030 0.008 0.038 0.027 0.047 0.111 0.007 0.056 0.053 0.298 0.103 0.536 0.125 0.596 0.158 0.809 0.168 1.098l0.010 0.25-0.19 0.062c-0.105 0.033-0.226 0.068-0.273 0.078-0.091 0.018-0.374 0.043-0.374 0.033 0-0.003-0.015-0.25-0.035-0.547-0.018-0.298-0.038-0.764-0.043-1.037l-0.010-0.494h0.053c0.030 0 0.127-0.018 0.215-0.040 0.088-0.023 0.185-0.045 0.211-0.048 0.028-0.003 0.058-0.008 0.066-0.008 0.010-0.002 0.033 0.002 0.052 0.007zM15.91 6.154c-0.14 0.023-0.336 0.111-0.524 0.236-0.158 0.103-0.414 0.363-0.521 0.526-0.143 0.218-0.236 0.509-0.211 0.659 0.012 0.067 0.088 0.165 0.128 0.165 0.012 0 0.052-0.062 0.088-0.138 0.142-0.29 0.358-0.569 0.556-0.716 0.115-0.085 0.295-0.166 0.446-0.203 0.095-0.023 0.167-0.027 0.358-0.020 0.13 0.005 0.255 0.013 0.276 0.020 0.032 0.010 0.040 0.003 0.062-0.048 0.040-0.093 0.032-0.163-0.028-0.253-0.117-0.173-0.381-0.27-0.629-0.228zM21.285 7.951c0 0.226 0.055 0.449 0.203 0.819 0.045 0.113 0.080 0.221 0.076 0.241-0.008 0.053-0.158 0.090-0.451 0.11-0.258 0.018-0.283 0.022-0.406 0.053-0.065 0.017-0.072 0.023-0.072 0.068 0 0.16 0.115 0.306 0.276 0.354 0.261 0.075 0.709-0.062 0.945-0.286 0.145-0.14 0.143-0.13 0.025-0.326-0.096-0.158-0.289-0.544-0.491-0.982-0.045-0.1-0.087-0.18-0.093-0.18-0.008 0-0.013 0.058-0.013 0.128zM17.033 7.921c-0.040 0.235 0.108 0.689 0.374 1.145 0.060 0.101 0.1 0.188 0.097 0.21-0.012 0.086-0.268 0.158-0.486 0.136-0.065-0.007-0.22-0.030-0.343-0.052-0.3-0.053-0.34-0.053-0.364 0.005-0.047 0.113-0.050 0.156-0.023 0.223 0.073 0.186 0.369 0.298 0.79 0.298 0.348 0 0.483-0.045 0.679-0.226 0.082-0.077 0.105-0.11 0.126-0.186 0.030-0.103 0.023-0.206-0.020-0.29-0.015-0.030-0.112-0.14-0.213-0.246-0.21-0.22-0.255-0.293-0.419-0.679-0.062-0.145-0.128-0.295-0.148-0.336l-0.038-0.073-0.012 0.072zM19.185 8.224c-0.025 0.013-0.030 0.040-0.030 0.138 0 0.456 0.265 1.055 0.729 1.657 0.12 0.153 0.523 0.637 0.687 0.824 0.166 0.19 0.223 0.351 0.181 0.527-0.027 0.113-0.093 0.245-0.13 0.258-0.015 0.005-0.185 0.083-0.378 0.173-0.446 0.206-0.596 0.268-0.782 0.321-0.221 0.062-0.388 0.083-0.567 0.072-0.29-0.017-0.349-0.073-0.438-0.418-0.028-0.108-0.052-0.201-0.052-0.203 0-0.003-0.006-0.007-0.017-0.007-0.028 0-0.098 0.16-0.117 0.273-0.035 0.196 0.035 0.443 0.171 0.601l0.058 0.067 0.251 0.005c0.679 0.017 1.306-0.186 2.072-0.667l0.248-0.156 0.028-0.115c0.015-0.063 0.047-0.168 0.070-0.231 0.023-0.065 0.052-0.16 0.062-0.211 0.033-0.16 0.020-0.185-0.261-0.461-0.724-0.709-1.513-1.805-1.607-2.236-0.018-0.081-0.043-0.146-0.072-0.178-0.043-0.053-0.063-0.058-0.108-0.032zM10.973 10.034c-0.16 0.055-0.28 0.185-0.343 0.374-0.040 0.117-0.037 0.123 0.035 0.058 0.1-0.097 0.136-0.115 0.231-0.115 0.047 0 0.092 0.007 0.097 0.017 0.005 0.008-0.010 0.078-0.035 0.153-0.037 0.115-0.046 0.176-0.053 0.364-0.008 0.261 0.018 0.429 0.095 0.589 0.098 0.205 0.096 0.208 0.105-0.226 0.008-0.339 0.013-0.403 0.045-0.501 0.058-0.181 0.171-0.258 0.309-0.213 0.083 0.028 0.148 0.112 0.261 0.343 0.057 0.115 0.126 0.235 0.156 0.27l0.053 0.062 0.012-0.115c0.052-0.478-0.22-0.93-0.637-1.058-0.131-0.040-0.218-0.042-0.331-0.002zM21.193 12.342c-0.634 0.336-0.855 0.423-1.213 0.481-0.081 0.013-0.155 0.033-0.163 0.045-0.015 0.025-0.018 0.426-0.003 0.516 0.010 0.062 0.013 0.063 0.080 0.063 0.113 0 0.363-0.060 0.516-0.121 0.384-0.156 0.762-0.534 1.033-1.032 0.033-0.062 0.058-0.111 0.055-0.111-0.002 0-0.14 0.072-0.305 0.16zM17.068 12.667c0.115 0.213 0.419 0.446 0.764 0.579 0.414 0.163 1.065 0.264 1.572 0.248l0.158-0.005-0.003-0.225c-0.002-0.123-0.010-0.258-0.017-0.3l-0.015-0.075-0.572-0.010c-0.942-0.017-1.426-0.091-1.904-0.29-0.027-0.012-0.025-0.002 0.017 0.077zM16.714 13.166c-0.085 0.025-0.096 0.067-0.040 0.141 0.027 0.037 0.087 0.102 0.135 0.148 0.047 0.045 0.153 0.178 0.236 0.294s0.196 0.266 0.253 0.333c0.294 0.344 0.619 0.463 1.266 0.463 0.531 0 1.018-0.098 1.185-0.24 0.052-0.043 0.171-0.21 0.171-0.238 0-0.008-0.271-0.012-0.604-0.008-0.995 0.012-1.409-0.045-1.817-0.245-0.276-0.136-0.469-0.321-0.579-0.554-0.048-0.103-0.058-0.113-0.103-0.111-0.027 0-0.075 0.008-0.103 0.017zM18.845 18.77c-0.1 0.060-0.113 0.206-0.028 0.291 0.123 0.123 0.321 0.033 0.321-0.146 0-0.050-0.012-0.075-0.057-0.12-0.067-0.067-0.153-0.076-0.236-0.025zM19.097 19.651c-0.090 0.030-0.141 0.1-0.141 0.191 0 0.052 0.012 0.076 0.057 0.122 0.048 0.048 0.068 0.057 0.133 0.057 0.060 0 0.087-0.010 0.13-0.048 0.048-0.043 0.055-0.058 0.055-0.133 0-0.072-0.006-0.092-0.050-0.133-0.052-0.050-0.126-0.073-0.183-0.055zM23.232 22.017c-0.409 0.073-0.742 0.24-0.932 0.466l-0.070 0.083h0.078c0.175 0 0.358-0.076 0.757-0.316 0.241-0.145 0.384-0.22 0.483-0.25 0.083-0.027-0.138-0.015-0.316 0.017zM22.887 22.715c-0.116 0.022-0.253 0.076-0.313 0.125-0.042 0.035-0.047 0.045-0.025 0.060 0.037 0.025 0.587 0.005 0.973-0.035 0.175-0.018 0.331-0.033 0.349-0.035 0.055-0.003-0.14-0.060-0.308-0.088-0.19-0.033-0.558-0.048-0.677-0.027zM22.737 23.406c-0.093 0.025-0.213 0.081-0.228 0.105s0.235 0.037 0.913 0.047c0.567 0.006 0.627 0.005 0.579-0.017-0.078-0.037-0.371-0.106-0.563-0.135-0.21-0.032-0.586-0.032-0.702 0z"></path>
</svg>
