<?xml version="1.0" encoding="UTF-8"?>
<svg xmlns="http://www.w3.org/2000/svg"
    xmlns:xlink="http://www.w3.org/1999/xlink" width="32" height="32" viewBox="0 0 32 32" version="1.1">
    <g id="surface5751046">
        <path fill="#444444" style="stroke:none;fill-rule:nonzero;" d="M 14 29.5 C 13.796875 29.5 13.613281 29.378906 13.535156 29.183594 C 12.539062 26.671875 10.6875 22 9.3125 22 C 8.667969 22 8.035156 22.410156 8.027344 22.414062 C 7.855469 22.53125 7.628906 22.527344 7.457031 22.40625 L 1.207031 17.90625 C 1.0625 17.800781 0.984375 17.621094 1.003906 17.441406 C 1.023438 17.261719 1.140625 17.105469 1.308594 17.035156 L 9.542969 13.65625 C 9.910156 13.117188 11.335938 11.128906 12.882812 10.53125 C 13.117188 10.441406 13.3125 10.371094 13.476562 10.308594 C 14.3125 9.996094 14.3125 9.996094 14.953125 9.394531 L 15.09375 9.261719 C 15.964844 8.445312 17.625 5.882812 18.136719 5.050781 C 18.195312 4.953125 18.257812 4.847656 18.324219 4.734375 C 18.882812 3.792969 19.648438 2.5 20.8125 2.5 C 22.148438 2.5 22.855469 3.875 23.644531 5.675781 C 24.371094 7.328125 26.308594 12.804688 27.097656 15.152344 C 29.003906 20.804688 30.929688 24.742188 30.949219 24.78125 C 31.046875 24.976562 31.003906 25.21875 30.839844 25.367188 C 30.675781 25.519531 30.433594 25.542969 30.242188 25.429688 C 30.203125 25.40625 29.234375 24.820312 27.648438 23.226562 C 26.46875 22.050781 25.507812 21.5 24.625 21.5 C 23.070312 21.5 21.972656 22.734375 20.582031 24.300781 L 20.5 24.394531 C 20.335938 24.582031 20.152344 24.792969 19.953125 25.023438 C 18.574219 26.640625 16.488281 29.082031 14.085938 29.492188 C 14.054688 29.496094 14.027344 29.5 14 29.5 Z M 9.3125 21 C 11.160156 21 12.621094 24.1875 14.304688 28.417969 C 16.210938 27.871094 17.988281 25.785156 19.195312 24.375 C 19.398438 24.136719 19.582031 23.921875 19.75 23.730469 L 19.835938 23.636719 C 21.328125 21.953125 22.621094 20.5 24.625 20.5 C 26.140625 20.5 27.414062 21.582031 28.355469 22.523438 C 28.652344 22.820312 28.925781 23.082031 29.175781 23.308594 C 28.425781 21.589844 27.28125 18.828125 26.152344 15.472656 C 25.335938 13.046875 23.414062 7.636719 22.730469 6.074219 C 21.996094 4.40625 21.472656 3.5 20.8125 3.5 C 20.21875 3.5 19.570312 4.59375 19.183594 5.246094 C 19.117188 5.363281 19.050781 5.472656 18.988281 5.574219 C 18.96875 5.609375 16.929688 8.914062 15.78125 9.988281 L 15.640625 10.121094 C 14.875 10.839844 14.824219 10.871094 13.828125 11.246094 C 13.664062 11.304688 13.472656 11.378906 13.242188 11.46875 C 12.035156 11.929688 10.707031 13.691406 10.296875 14.332031 C 10.242188 14.417969 10.160156 14.488281 10.066406 14.527344 L 2.523438 17.621094 L 7.78125 21.40625 C 8.121094 21.234375 8.695312 21 9.3125 21 Z M 9.3125 21 "/>
        <path fill="#444444" style="stroke:none;fill-rule:nonzero;" d="M 7.964844 22.453125 L 7.535156 21.546875 C 7.566406 21.535156 10.632812 20.050781 13.015625 16.355469 C 15.28125 12.84375 16.402344 10.101562 17.003906 8.628906 C 17.15625 8.253906 17.273438 7.96875 17.363281 7.78125 C 17.582031 7.328125 17.796875 6.777344 18.019531 6.199219 C 18.726562 4.378906 19.453125 2.5 20.8125 2.5 L 20.8125 3.5 C 20.140625 3.5 19.453125 5.269531 18.953125 6.558594 C 18.71875 7.160156 18.5 7.726562 18.261719 8.21875 C 18.179688 8.390625 18.070312 8.65625 17.929688 9.007812 C 17.316406 10.507812 16.175781 13.304688 13.859375 16.898438 C 11.308594 20.847656 8.097656 22.386719 7.964844 22.453125 Z M 7.964844 22.453125 "/>
        <path fill="#444444" style="stroke:none;fill-rule:nonzero;" d="M 13.074219 17.085938 L 9.574219 14.460938 L 10.175781 13.664062 L 13.675781 16.289062 Z M 13.074219 17.085938 "/>
        <path fill="#444444" style="stroke:none;fill-rule:nonzero;" d="M 19.085938 22.972656 C 20.644531 21.21875 22.121094 19.558594 24.5 19.5 C 24.5 19.5 22.8125 12.0625 21.375 5.9375 C 21.082031 4.691406 20.964844 4.5 20.84375 4.5 C 20.761719 4.5 20.664062 4.683594 20.585938 5.101562 C 20.171875 7.347656 18.207031 15.710938 16.625 19.75 C 16.019531 21.292969 14.941406 22.199219 14 22.625 C 13.570312 22.820312 12.949219 23 12.949219 23 C 13.601562 24.140625 14.21875 25.539062 14.855469 27.101562 C 16.199219 26.34375 17.511719 24.804688 18.433594 23.726562 C 18.640625 23.484375 18.832031 23.261719 19.003906 23.066406 Z M 19.085938 22.972656 "/>
    </g>
</svg>
