<?xml version="1.0" encoding="utf-8"?>
<!-- Generated by IcoMoon.io -->
<!DOCTYPE svg PUBLIC "-//W3C//DTD SVG 1.1//EN" "http://www.w3.org/Graphics/SVG/1.1/DTD/svg11.dtd">
<svg version="1.1" xmlns="http://www.w3.org/2000/svg" xmlns:xlink="http://www.w3.org/1999/xlink" width="32" height="32" viewBox="0 0 32 32">
<path fill="#444444" d="M16.045 13.917c-0.095 0.035-0.17 0.094-0.229 0.182-0.095 0.14-0.095 0.144-0.102 0.92l-0.006 0.704h0.942l-0.004-0.725-0.004-0.724-0.048-0.1c-0.081-0.17-0.212-0.267-0.382-0.277-0.063-0.004-0.111 0.002-0.166 0.020zM5.3 13.974c-0.237 0.039-0.467 0.2-0.526 0.366-0.027 0.075-0.029 0.134-0.033 1.974-0.004 2.177-0.014 2.016 0.121 2.162 0.052 0.058 0.105 0.097 0.167 0.125 0.082 0.038 0.105 0.042 0.242 0.042 0.14 0 0.159-0.003 0.248-0.046 0.121-0.058 0.2-0.137 0.244-0.244l0.035-0.085 0.007-1.4 0.007-1.399 0.404 0.49c0.222 0.271 0.728 0.887 1.125 1.37 0.764 0.933 0.939 1.125 1.083 1.201 0.162 0.087 0.268 0.112 0.453 0.112 0.258 0 0.417-0.065 0.516-0.215 0.102-0.154 0.097-0.014 0.097-2.157v-1.925l-0.035-0.085c-0.046-0.114-0.143-0.21-0.255-0.254-0.066-0.026-0.114-0.033-0.222-0.035-0.159 0-0.221 0.016-0.332 0.081-0.091 0.055-0.162 0.159-0.186 0.274-0.010 0.046-0.016 0.538-0.016 1.468 0 0.77-0.004 1.399-0.010 1.397-0.010 0-2.033-2.441-2.332-2.813-0.146-0.18-0.261-0.288-0.362-0.336-0.124-0.058-0.32-0.089-0.44-0.069zM22.933 13.984c-0.143 0.037-0.265 0.141-0.332 0.281-0.023 0.049-0.035 0.101-0.039 0.196-0.006 0.113-0.002 0.146 0.030 0.236 0.071 0.202 0.095 0.231 0.799 0.939 0.368 0.369 0.668 0.678 0.668 0.685s-0.3 0.316-0.668 0.685c-0.715 0.718-0.743 0.751-0.806 0.956-0.045 0.151-0.033 0.319 0.032 0.44 0.167 0.313 0.539 0.36 0.908 0.114 0.036-0.023 0.362-0.339 0.725-0.701l0.659-0.658 0.66 0.658c0.362 0.362 0.688 0.678 0.724 0.701 0.172 0.115 0.358 0.173 0.5 0.157 0.185-0.022 0.325-0.114 0.408-0.271 0.065-0.121 0.076-0.288 0.032-0.44-0.063-0.205-0.091-0.238-0.806-0.956-0.368-0.369-0.668-0.678-0.668-0.685s0.3-0.316 0.668-0.685c0.704-0.708 0.728-0.737 0.799-0.939 0.032-0.091 0.036-0.124 0.030-0.236-0.004-0.095-0.014-0.147-0.039-0.198-0.105-0.219-0.337-0.333-0.585-0.287-0.047 0.009-0.148 0.046-0.224 0.082l-0.137 0.068-1.363 1.357-0.681-0.679-0.682-0.678-0.137-0.068c-0.19-0.092-0.33-0.115-0.477-0.075zM17.711 14.008c-0.141 0.033-0.257 0.125-0.317 0.257l-0.032 0.066v3.893l0.040 0.087c0.022 0.047 0.063 0.111 0.092 0.14 0.114 0.117 0.352 0.174 0.597 0.143 0.229-0.029 0.386-0.115 0.575-0.313 0.059-0.063 0.614-0.724 1.233-1.468l1.125-1.353 0.007 1.396 0.007 1.397 0.035 0.075c0.062 0.14 0.199 0.236 0.371 0.264 0.209 0.035 0.398-0.016 0.519-0.137 0.138-0.137 0.127 0.023 0.133-2.011 0.004-1.864 0.002-1.986-0.058-2.121-0.058-0.137-0.268-0.278-0.47-0.317-0.18-0.035-0.41 0.012-0.561 0.112-0.055 0.036-0.17 0.162-0.412 0.451-0.908 1.086-2.182 2.594-2.19 2.594-0.006 0.002-0.013-0.63-0.014-1.402-0.004-1.27-0.007-1.407-0.029-1.462-0.061-0.15-0.157-0.239-0.313-0.284-0.085-0.024-0.248-0.029-0.337-0.007zM11.020 14.067c-0.039 0.068-1.146 2.111-1.182 2.182l-0.022 0.045 0.645 1.159 0.645 1.161 2.699 0.007 0.663-1.221 0.663-1.223-0.513-0.009c-0.921-0.016-2.383-0.014-2.477 0.003-0.128 0.023-0.225 0.076-0.307 0.166-0.248 0.271-0.082 0.668 0.307 0.74 0.055 0.010 0.345 0.016 0.797 0.016h0.711l-0.221 0.363-0.221 0.365-1.487 0.007-0.407-0.734c-0.222-0.404-0.405-0.743-0.405-0.753 0-0.012 0.17-0.333 0.379-0.715l0.378-0.696h1.634l0.242 0.396 0.244 0.395 0.539 0.002h0.538l-0.020-0.033c-0.012-0.017-0.244-0.404-0.516-0.858l-0.495-0.825h-2.777l-0.035 0.061zM15.714 17.204c0.006 1.024 0.006 1.037 0.037 1.129 0.046 0.138 0.121 0.228 0.239 0.288 0.123 0.062 0.245 0.068 0.366 0.014 0.097-0.042 0.206-0.16 0.251-0.271l0.033-0.082 0.004-1.047 0.004-1.047-0.141-0.009c-0.078-0.006-0.29-0.010-0.47-0.010h-0.329l0.004 1.034z"></path>
</svg>
