<?xml version="1.0" encoding="utf-8"?>
<!-- Generated by IcoMoon.io -->
<!DOCTYPE svg PUBLIC "-//W3C//DTD SVG 1.1//EN" "http://www.w3.org/Graphics/SVG/1.1/DTD/svg11.dtd">
<svg version="1.1" xmlns="http://www.w3.org/2000/svg" xmlns:xlink="http://www.w3.org/1999/xlink" width="32" height="32" viewBox="0 0 32 32">
<path fill="#444444" d="M16 5.036c-6.213 0-11.25 5.037-11.25 11.25s5.037 11.25 11.25 11.25c6.213 0 11.25-5.037 11.25-11.25s-5.037-11.25-11.25-11.25zM14.096 24.446c-0.116 0.233-0.605 0.070-1.14-0.116s-2.351-0.931-3.398-2.118c-1.047-1.187-1.582-2.77-1.536-4.282s0.465-2.141 1.164-3.119c0.698-0.977 2.63-2.42 3.235-2.793s1.42-1.001 1.815-1.513c0.396-0.512 0.605-0.931 0.582-1.629s0.047-1.327 0.023-1.559c-0.023-0.233-0.023-0.698 0.186-0.605s0.233 0.349 0.233 0.605-0.070 1.303-0.14 2.327c-0.070 1.024-0.884 1.885-1.489 2.49s-2.351 2.49-3.002 3.421c-0.652 0.931-0.976 2.157-0.908 3.188 0.070 1.047 0.326 2.071 1.303 3.165s1.652 1.606 2.164 1.862c0.512 0.256 1.024 0.442 0.908 0.675zM14.953 25.564c-0.167 0.203-0.454 0.326-0.489 0.244s0.207-0.129 0.385-0.327c0.163-0.182 0.12-0.522 0.236-0.527 0.095-0.004 0.035 0.406-0.132 0.61zM15.376 23.864c-0.326 0.419-1.652-1.024-2.351-1.862s-1.396-2.537-1.42-3.863c-0.023-1.327 0.721-2.56 1.257-3.305s1.583-2.025 1.862-2.607 0.582-1.21 0.675-2.025c0.093-0.815 0-3.724 0-3.724s-0.023-1.28 0.186-1.14c0.21 0.14 0.256 0.954 0.256 1.699s0.070 3.956-0.163 4.817c-0.233 0.861-0.768 1.815-1.35 2.653s-1.257 2.607-1.233 3.7c0.023 1.094 0.652 2.886 1.14 3.631 0.491 0.747 1.323 1.789 1.14 2.025zM16.072 26.037c-0.096 0-0.060-0.29-0.060-0.648s-0.033-0.649 0.060-0.649c0.085 0 0.060 0.29 0.060 0.649s0.018 0.648-0.060 0.648zM17.59 25.797c-0.035 0.082-0.322-0.040-0.489-0.244s-0.227-0.613-0.132-0.61c0.116 0.005 0.073 0.345 0.236 0.527 0.178 0.198 0.42 0.245 0.385 0.327zM22.354 22.243c-0.901 1.048-2.002 1.688-3.274 2.197-0.42 0.168-0.686 0.349-1.041 0.018-0.572-0.532-1.113-0.587-1.828-0.778-0.199-0.053-0.337-0.495-0.409-0.654-0.239-0.524-0.421-1.075-0.56-1.633-0.674-2.694-0.137-5.392 0.545-8.025 0.291-1.124 0.479-2.241 0.488-3.408 0.005-0.611-0.080-1.214-0.152-1.819-0.031-0.257-0.151-0.894 0.162-0.405 0.126 0.197 0.357-0.082 0.377 0.145 0.016 0.175 0.018 0.352 0.024 0.528 0.015 0.448 0.012 0.906 0.083 1.35 0.171 1.074 1.495 1.739 2.311 2.249 1.869 1.168 4.378 2.718 4.757 5.11 0.305 1.929-0.217 3.653-1.483 5.125z"></path>
</svg>
