<?xml version="1.0" encoding="utf-8"?>
<!-- Generated by IcoMoon.io -->
<!DOCTYPE svg PUBLIC "-//W3C//DTD SVG 1.1//EN" "http://www.w3.org/Graphics/SVG/1.1/DTD/svg11.dtd">
<svg version="1.1" xmlns="http://www.w3.org/2000/svg" xmlns:xlink="http://www.w3.org/1999/xlink" width="34" height="32" viewBox="0 0 34 32">
<path fill="#444444" d="M3.556 2.845v27.071h27.53v-27.071h-27.53zM28.896 27.763h-23.151v-22.765h23.151v22.765z"></path>
<path fill="#444444" d="M16.555 10.442c-0.693-0.599-1.726-0.939-3.173-0.939-1.433 0-3.173 0.046-3.173 0.046l-0 11.103h2.326v-3.568c0 0 0.407-0.005 0.847-0.023 1.593-0.067 2.526-0.549 3.327-1.364 0.616-0.631 0.955-1.53 0.955-2.627s-0.447-2.062-1.109-2.628zM13.32 15.115c-0.375 0.004-0.533 0.016-0.786-0.008v-3.834c0 0 0.493-0.017 0.971 0 1.198 0.044 1.833 0.89 1.833 1.921-0 1.148-0.77 1.906-2.018 1.921z"></path>
<path fill="#444444" d="M22.205 15.455c-1.005-0.356-1.324-0.559-1.324-0.949 0-0.423 0.352-0.677 0.972-0.677 0.703 0 1.767 0.454 2.136 0.658v-1.871c-0.502-0.254-1.265-0.566-2.22-0.566-2.027 0-3.334 1.169-3.334 2.728-0.017 0.965 0.636 1.655 2.329 2.231 0.955 0.322 1.206 0.767 1.206 1.191s-0.318 0.695-1.089 0.695c-0.754 0-1.86-0.431-2.329-0.718v0 1.847c0.62 0.338 1.518 0.659 2.329 0.684 2.363 0.074 3.551-1.152 3.551-2.694-0.017-1.22-0.67-2.016-2.228-2.558z"></path>
</svg>
