<?xml version="1.0"?>
<svg fill="#444444"
    xmlns="http://www.w3.org/2000/svg" viewBox="0 0 50 50" width="32" height="32">
    <path d="M49.324,7.34c-0.94-1.17-2.61-1.32-3.96-1.33C41.435,6,16.578,6,12.978,6.01c-3.999,0.01-5.579,1.27-6.479,5.17 C4.409,20.19,2.33,29.21,0.27,38.23c-0.31,1.37-0.55,3.11,0.42,4.33c0.99,1.24,2.79,1.41,4.249,1.41 c5.159,0.02,26.657,0.02,32.376,0c3.55-0.01,5.469-1.51,6.239-4.88c2.28-9.98,4.309-19.02,6.199-27.64 C50.044,10.15,50.254,8.5,49.324,7.34z M14.758,38.28c-1.2,0.88-2.34,1.11-3.3-0.2c-1.07-1.45-0.08-2.31,1.02-3.12 c3.96-2.89,7.909-5.8,11.839-8.72c0.55-0.41,1.27-0.97,1.74-1.32c-0.61-0.69-1.12-1.26-1.53-1.73c-2.43-2.73-4.659-5.27-7.069-7.87 c-1.1-1.19-1.45-2.34-0.13-3.52c1.31-1.16,2.6-1.06,3.789,0.28c3.34,3.72,6.679,7.44,10.069,11.1c1.27,1.37,0.98,2.3-0.42,3.32 C25.407,30.39,20.077,34.33,14.758,38.28z M32.246,38h-9.499c-1.13,0-1.75-1-1.75-2s0.62-2,1.75-2h9.499c1.13,0,1.75,1,1.75,2 S33.376,38,32.246,38z"/>
</svg>