<?xml version="1.0" encoding="utf-8"?>
<!-- Generated by IcoMoon.io -->
<!DOCTYPE svg PUBLIC "-//W3C//DTD SVG 1.1//EN" "http://www.w3.org/Graphics/SVG/1.1/DTD/svg11.dtd">
<svg version="1.1" xmlns="http://www.w3.org/2000/svg" xmlns:xlink="http://www.w3.org/1999/xlink" width="32" height="32" viewBox="0 0 32 32">
<path fill="#444444" d="M11.553 12.292c0 0.212-0.172 0.383-0.383 0.383s-0.383-0.172-0.383-0.383c0-0.212 0.172-0.383 0.383-0.383s0.383 0.172 0.383 0.383zM11.733 10.466c-1.245 0-2.255 1.009-2.255 2.255s1.010 2.255 2.255 2.255c1.245 0 2.255-1.009 2.255-2.255s-1.010-2.255-2.255-2.255zM11.789 14.141c-0.753 0-1.364-0.611-1.364-1.364s0.611-1.364 1.364-1.364c0.753 0 1.364 0.611 1.364 1.364s-0.611 1.364-1.364 1.364zM21.496 12.676c0.212 0 0.383-0.171 0.383-0.383s-0.172-0.383-0.383-0.383c-0.212 0-0.383 0.172-0.383 0.383s0.172 0.383 0.383 0.383zM22.195 15.066c1.245 0 2.255-1.010 2.255-2.255s-1.009-2.255-2.255-2.255c-1.245 0-2.255 1.009-2.255 2.255s1.010 2.255 2.255 2.255zM22.116 11.436c0.753 0 1.364 0.611 1.364 1.364s-0.611 1.364-1.364 1.364c-0.753 0-1.364-0.611-1.364-1.364s0.611-1.364 1.364-1.364zM27.33 15.773c0-3.092-1.24-5.893-3.247-7.937-0.373-1.138-0.33-2.711 0.143-3.427 0.165-0.25 0.341-0.492 0.53-0.764-1.679-0.286-3.107 0.195-4.064 1.393-0.116 0.146-0.224 0.232-0.337 0.274-1.341-0.559-2.812-0.869-4.355-0.869-1.549 0-3.025 0.312-4.37 0.875-0.119-0.040-0.232-0.127-0.354-0.28-0.956-1.197-2.384-1.679-4.064-1.393 0.189 0.272 0.365 0.514 0.53 0.764 0.48 0.727 0.517 2.336 0.127 3.477-1.979 2.040-3.199 4.82-3.199 7.887 0 1.443 0.271 2.823 0.763 4.092 0.123 0.348 0.236 0.7 0.351 1.051 0.105 0.321 0.206 0.639 0.299 0.958 0.274 0.94 0.442 1.911 0.469 2.89 0.008 0.268 0.003 0.536-0.004 0.803-0.003 0.092-0.006 0.184-0.009 0.276l2.295-2.1c0.416 0.384 0.982 0.73 1.664 1.025-0.691 0.483-1.144 1.284-1.144 2.191 0 0.774 0.331 1.469 0.857 1.957-0.051-0.17-0.079-0.35-0.079-0.537 0-1.028 0.833-1.86 1.86-1.86s1.86 0.833 1.86 1.86c0 0.22-0.040 0.43-0.11 0.626 0.584-0.49 0.956-1.225 0.956-2.047 0-0.45-0.112-0.873-0.308-1.245 0.614 0.064 1.253 0.098 1.911 0.098 0.448 0 0.887-0.016 1.316-0.046-0.18 0.359-0.281 0.764-0.281 1.193 0 0.774 0.331 1.469 0.857 1.957-0.051-0.17-0.079-0.35-0.079-0.537 0-1.028 0.833-1.86 1.86-1.86s1.86 0.833 1.86 1.86c0 0.22-0.040 0.43-0.11 0.626 0.584-0.49 0.956-1.225 0.956-2.047 0-0.818-0.368-1.55-0.948-2.040 0.706-0.27 1.307-0.592 1.771-0.952l1.984 1.815c-0.004-0.092-0.007-0.184-0.009-0.276-0.007-0.267-0.012-0.535-0.004-0.803 0.028-0.979 0.196-1.95 0.469-2.89 0.093-0.319 0.194-0.638 0.299-0.959 0.121-0.369 0.239-0.741 0.37-1.107l-0.001 0c0.464-1.237 0.72-2.576 0.72-3.975zM5.987 19.152l-0.425-1.272 0.564 0.519 0.875-0.309-1.014 1.062zM6.205 20.062l0.564 0.519 0.875-0.309-1.014 1.062-0.425-1.272zM7.591 18.168l0.524 0.56 0.895-0.243-1.091 0.983-0.328-1.3zM7.171 23.549l-0.425-1.272 0.564 0.519 0.875-0.309-1.014 1.062zM8.575 21.74l-0.425-1.272 0.564 0.519 0.875-0.309-1.014 1.062zM9.536 18.557l0.524 0.56 0.895-0.243-1.091 0.983-0.328-1.3zM16.034 20.418c-0.225-0.335-0.413-0.712-0.588-1.052-0.201-0.389-0.403-0.778-0.606-1.166-0.388-0.742-0.964-1.497-1.157-2.335-0.772 0.628-1.756 1.004-2.829 1.004-2.478 0-4.487-2.009-4.487-4.487s2.009-4.487 4.487-4.487c0.659 0 1.284 0.143 1.848 0.398 0.255 0.108 0.499 0.239 0.73 0.391 1.164 0.806 1.926 2.15 1.926 3.672 0 0.219-0.017 0.433-0.048 0.643 0.229-0.072 0.472-0.111 0.724-0.111 0.291 0 0.569 0.054 0.828 0.149-0.039-0.237-0.061-0.479-0.061-0.726 0-0.388 0.052-0.764 0.145-1.123 0.005-0.018 0.010-0.035 0.015-0.053 0.025-0.090 0.052-0.18 0.082-0.268 0.021-0.062 0.043-0.123 0.066-0.183 0.010-0.025 0.019-0.050 0.029-0.074 0.668-1.639 2.277-2.794 4.155-2.794 2.478 0 4.487 2.009 4.487 4.487s-2.009 4.487-4.487 4.487c-0.932 0-1.798-0.284-2.515-0.771-0.129-0.087-0.253-0.182-0.372-0.281-0.094 0.447-0.321 0.827-0.547 1.252-0.308 0.581-0.613 1.164-0.917 1.747l-0.908 1.68zM24.467 18.32l-0.328 1.3-1.091-0.983 0.895 0.242 0.524-0.56zM21.103 19.026l0.895 0.243 0.524-0.56-0.328 1.3-1.091-0.983zM23.484 21.892l-1.014-1.062 0.875 0.309 0.564-0.519-0.425 1.272zM24.887 23.701l-1.014-1.062 0.875 0.309 0.564-0.519-0.425 1.272zM25.428 21.486l-1.014-1.062 0.875 0.309 0.564-0.519-0.425 1.272zM26.071 19.305l-1.014-1.062 0.875 0.309 0.564-0.519-0.425 1.272zM16.028 13.337c-1.161 0-2.102 0.941-2.102 2.103 0 0.927 0.654 1.729 1.064 2.514 0.176 0.338 0.352 0.676 0.527 1.014 0.152 0.295 0.316 0.623 0.512 0.914l0.789-1.461c0.265-0.507 0.529-1.014 0.797-1.519 0.256-0.482 0.516-0.897 0.516-1.463 0-1.161-0.941-2.103-2.103-2.103z"></path>
</svg>
