<?xml version="1.0" encoding="utf-8"?>
<!-- Generated by IcoMoon.io -->
<!DOCTYPE svg PUBLIC "-//W3C//DTD SVG 1.1//EN" "http://www.w3.org/Graphics/SVG/1.1/DTD/svg11.dtd">
<svg version="1.1" xmlns="http://www.w3.org/2000/svg" xmlns:xlink="http://www.w3.org/1999/xlink" width="32" height="32" viewBox="0 0 32 32">
<path fill="#444444" d="M13.275 15.88h5.417c1.508 0 2.712-1.241 2.712-2.756v-5.164c0-1.47-1.24-2.574-2.712-2.819-0.932-0.155-1.898-0.226-2.825-0.221s-1.813 0.083-2.592 0.221c-2.295 0.405-2.712 1.254-2.712 2.819v2.067h5.423v0.689h-7.459c-1.576 0-2.956 0.947-3.388 2.75-0.498 2.066-0.52 3.355 0 5.512 0.385 1.606 1.306 2.75 2.882 2.75h1.865v-2.478c0-1.79 1.549-3.369 3.388-3.369zM12.933 8.649c-0.562 0-1.018-0.461-1.018-1.030 0-0.572 0.455-1.037 1.018-1.037 0.56 0 1.018 0.465 1.018 1.037 0 0.57-0.457 1.030-1.018 1.030zM26.826 13.465c-0.389-1.569-1.133-2.75-2.712-2.75h-2.035v2.408c0 1.867-1.583 3.439-3.388 3.439h-5.417c-1.484 0-2.712 1.27-2.712 2.756v5.164c0 1.47 1.278 2.334 2.712 2.756 1.717 0.505 3.363 0.596 5.417 0 1.365-0.395 2.712-1.191 2.712-2.756v-2.067h-5.417v-0.689h8.129c1.576 0 2.163-1.099 2.712-2.75 0.566-1.699 0.542-3.332 0-5.512zM19.033 23.794c0.562 0 1.018 0.461 1.018 1.030 0 0.572-0.456 1.037-1.018 1.037-0.56 0-1.018-0.465-1.018-1.037 0-0.57 0.457-1.030 1.018-1.030z"></path>
</svg>
