<?xml version="1.0" encoding="UTF-8"?>
<svg xmlns="http://www.w3.org/2000/svg" xmlns:xlink="http://www.w3.org/1999/xlink" width="32" height="32" viewBox="0 0 36 32" version="1.1">
<g id="surface1">
<path fill="#444444" d="M 36 14.164062 C 36 7.445312 27.9375 2 18 2 C 8.0625 2 0 7.445312 0 14.164062 C 0 20.148438 6.402344 25.125 14.832031 26.132812 L 14.832031 30 L 20.972656 30 L 20.972656 26.15625 C 22.480469 25.988281 23.921875 25.695312 25.273438 25.289062 L 27.757812 30 L 34.699219 30 L 30.523438 22.894531 C 33.898438 20.679688 36 17.585938 36 14.164062 Z M 7.074219 15.070312 C 7.074219 10.476562 13.203125 6.757812 20.757812 6.757812 C 28.308594 6.757812 33.886719 9.300781 33.886719 15.070312 C 33.886719 18.199219 32.246094 20.382812 29.53125 21.71875 C 29.382812 21.617188 29.238281 21.539062 29.132812 21.488281 C 28.503906 21.164062 27.410156 20.832031 27.410156 20.832031 C 27.410156 20.832031 32.777344 20.429688 32.777344 15.039062 C 32.777344 9.644531 27.164062 9.542969 27.164062 9.542969 L 14.832031 9.542969 L 14.832031 22.5625 C 10.242188 21.21875 7.074219 18.367188 7.074219 15.070312 Z M 21.023438 17.460938 L 21.023438 13.988281 C 24.605469 13.988281 26.464844 13.5625 26.464844 15.695312 C 26.464844 17.976562 24.097656 17.460938 21.023438 17.460938 Z M 20.96875 21.992188 L 22.617188 21.992188 C 23.285156 21.992188 23.789062 22.726562 24.101562 23.195312 C 23.105469 23.3125 22.058594 23.367188 20.96875 23.375 Z M 20.96875 21.992188 "/>
</g>
</svg>
