<?xml version="1.0" encoding="utf-8"?>
<!-- Generated by IcoMoon.io -->
<!DOCTYPE svg PUBLIC "-//W3C//DTD SVG 1.1//EN" "http://www.w3.org/Graphics/SVG/1.1/DTD/svg11.dtd">
<svg version="1.1" xmlns="http://www.w3.org/2000/svg" xmlns:xlink="http://www.w3.org/1999/xlink" width="32" height="32" viewBox="0 0 32 32">
<path fill="#444444" d="M9.456 27.25c6.215 0.848 12.319 1.682 18.544 2.532-2.121-3.531-4.187-6.972-6.27-10.441-4.081 2.63-8.124 5.235-12.273 7.909zM29.755 7.705c-0.548 0.823-1.097 1.645-1.644 2.468-1.879 2.827-3.758 5.654-5.635 8.482-0.105 0.158-0.24 0.283-0.093 0.525 1.814 2.995 3.613 5.999 5.417 9 0.285 0.474 0.572 0.946 0.941 1.401 0.364-7.284 0.729-14.568 1.094-21.852-0.027-0.008-0.054-0.016-0.080-0.023zM4.995 17.043c0.085 0.081 0.296 0.127 0.395 0.079 1.74-0.855 3.491-1.691 5.192-2.617 0.555-0.302 0.982-0.842 1.46-1.281 1.583-1.452 3.164-2.907 4.744-4.362 0.097-0.089 0.211-0.176 0.269-0.288 0.568-1.109 1.125-2.224 1.703-3.371-0.689-0.259-1.341-0.512-2.002-0.742-0.089-0.031-0.231 0.031-0.328 0.085-1.53 0.854-3.088 1.663-4.569 2.595-0.741 0.466-1.345 1.154-2.001 1.752-1.058 0.965-2.114 1.933-3.156 2.915-0.277 0.261-0.529 0.558-0.744 0.872-0.713 1.038-1.404 2.091-2.127 3.173 0.404 0.419 0.772 0.819 1.165 1.191zM11.353 15.625c-0.865 3.656-1.726 7.292-2.615 11.047 4.168-2.686 8.241-5.31 12.286-7.916-3.219-1.042-6.428-2.081-9.671-3.13zM28.692 7.74c-3.522 0.588-6.96 1.163-10.442 1.744 1.186 2.885 2.348 5.712 3.544 8.62 2.313-3.475 4.58-6.88 6.899-10.364zM11.498 14.877c3.172 1.030 6.28 2.039 9.479 3.077-1.188-2.894-2.335-5.687-3.506-8.538-1.995 1.824-3.959 3.62-5.973 5.461zM5.126 19.175c-1.125 2.689-2.211 5.286-3.317 7.93 2.126-0.063 4.187-0.124 6.318-0.187-1.001-2.582-1.982-5.114-3.001-7.744zM8.201 25.080c0.026-0.005 0.052-0.012 0.079-0.017 0.758-3.154 1.528-6.287 2.303-9.565-1.728 0.898-3.376 1.754-5.069 2.635 0.864 2.246 1.785 4.615 2.688 6.947zM27.417 7.229c-1.009-0.267-2.018-0.535-3.027-0.801-1.451-0.381-2.903-0.758-4.353-1.143-0.181-0.048-0.312-0.080-0.419 0.139-0.512 1.050-1.041 2.092-1.561 3.138-0.016 0.032-0.013 0.074-0.025 0.155 3.142-0.476 6.263-0.949 9.383-1.422 0.001-0.022 0.001-0.044 0.002-0.066zM21.564 4.841c2.709 0.75 5.419 1.499 8.223 2.275-0.472-1.344-0.909-2.59-1.359-3.872-2.303 0.511-4.577 1.015-6.852 1.519-0.004 0.026-0.008 0.051-0.012 0.077zM8.899 27.856c-1.019-0.117-2.064-0.009-3.097 0.008-0.849 0.015-1.697 0.047-2.545 0.073-0.088 0.003-0.175 0.020-0.262 0.114 7.015 0.649 14.030 1.297 21.044 1.946 0.005-0.031 0.009-0.063 0.014-0.094-2.249-0.307-4.497-0.614-6.746-0.921-2.802-0.383-5.599-0.803-8.408-1.127zM1.947 24.685c0.904-2.097 1.804-4.197 2.712-6.292 0.091-0.21 0.084-0.353-0.094-0.522-0.38-0.361-0.732-0.751-1.147-1.182-0.561 2.77-1.108 5.47-1.655 8.171 0.020 0.009 0.041 0.019 0.061 0.029 0.042-0.067 0.093-0.131 0.124-0.203zM19.763 4.287c1.524-0.393 3.071-0.701 4.608-1.044 0.099-0.022 0.197-0.055 0.295-0.083-0.005-0.025-0.010-0.050-0.015-0.075-2.165 0.291-4.331 0.583-6.606 0.889 0.62 0.271 1.098 0.473 1.718 0.314z"></path>
</svg>
