<?xml version="1.0" encoding="utf-8"?>
<!-- Generated by IcoMoon.io -->
<!DOCTYPE svg PUBLIC "-//W3C//DTD SVG 1.1//EN" "http://www.w3.org/Graphics/SVG/1.1/DTD/svg11.dtd">
<svg version="1.1" xmlns="http://www.w3.org/2000/svg" xmlns:xlink="http://www.w3.org/1999/xlink" width="27" height="32" viewBox="0 0 27 32">
<path fill="#444444" d="M23.738 16.031l-0.873-0.54c-0.007-0.085-0.015-0.17-0.025-0.254l0.75-0.7c0.076-0.071 0.11-0.176 0.090-0.278s-0.092-0.187-0.189-0.223l-0.959-0.359c-0.024-0.083-0.049-0.165-0.075-0.248l0.598-0.831c0.061-0.084 0.073-0.194 0.034-0.291s-0.127-0.165-0.229-0.182l-1.011-0.165c-0.039-0.077-0.080-0.152-0.122-0.227l0.425-0.933c0.043-0.095 0.035-0.205-0.024-0.292s-0.155-0.137-0.26-0.133l-1.026 0.036c-0.053-0.066-0.107-0.132-0.162-0.197l0.236-1c0.024-0.102-0.006-0.208-0.080-0.282s-0.18-0.104-0.281-0.080l-0.999 0.236c-0.065-0.055-0.131-0.109-0.197-0.162l0.036-1.026c0.004-0.104-0.047-0.203-0.133-0.26s-0.197-0.067-0.291-0.024l-0.933 0.425c-0.075-0.041-0.151-0.082-0.227-0.122l-0.165-1.011c-0.017-0.103-0.085-0.19-0.182-0.229s-0.206-0.027-0.29 0.034l-0.831 0.598c-0.082-0.026-0.164-0.051-0.247-0.075l-0.359-0.959c-0.036-0.098-0.121-0.17-0.223-0.19s-0.207 0.014-0.278 0.090l-0.7 0.751c-0.084-0.009-0.169-0.018-0.254-0.025l-0.54-0.873c-0.055-0.088-0.152-0.142-0.256-0.142s-0.201 0.054-0.255 0.142l-0.54 0.873c-0.085 0.007-0.17 0.016-0.255 0.025l-0.7-0.751c-0.071-0.076-0.176-0.11-0.278-0.090s-0.187 0.092-0.223 0.19l-0.359 0.959c-0.083 0.024-0.165 0.049-0.247 0.075l-0.831-0.598c-0.085-0.061-0.195-0.074-0.291-0.034s-0.165 0.127-0.181 0.229l-0.165 1.011c-0.076 0.039-0.152 0.080-0.227 0.122l-0.933-0.425c-0.095-0.043-0.205-0.034-0.292 0.024s-0.137 0.156-0.133 0.26l0.036 1.026c-0.066 0.053-0.132 0.107-0.197 0.162l-1-0.236c-0.101-0.024-0.208 0.007-0.281 0.080s-0.104 0.18-0.080 0.282l0.236 1c-0.055 0.065-0.109 0.13-0.162 0.197l-1.026-0.036c-0.104-0.003-0.202 0.047-0.26 0.133s-0.067 0.197-0.024 0.292l0.425 0.933c-0.041 0.075-0.082 0.15-0.122 0.227l-1.011 0.165c-0.103 0.017-0.189 0.085-0.229 0.182s-0.027 0.206 0.034 0.291l0.598 0.831c-0.026 0.082-0.051 0.165-0.075 0.248l-0.959 0.359c-0.097 0.036-0.169 0.121-0.189 0.223s0.014 0.207 0.090 0.278l0.75 0.7c-0.009 0.085-0.018 0.169-0.025 0.254l-0.873 0.54c-0.088 0.055-0.142 0.151-0.142 0.256s0.054 0.201 0.142 0.255l0.873 0.54c0.007 0.085 0.016 0.17 0.025 0.254l-0.75 0.7c-0.076 0.071-0.11 0.176-0.090 0.278s0.092 0.186 0.189 0.223l0.959 0.359c0.024 0.083 0.049 0.166 0.075 0.248l-0.598 0.831c-0.061 0.085-0.074 0.194-0.034 0.29s0.127 0.165 0.229 0.182l1.011 0.165c0.039 0.077 0.080 0.152 0.122 0.227l-0.425 0.932c-0.043 0.095-0.034 0.205 0.024 0.292s0.157 0.137 0.26 0.133l1.026-0.036c0.053 0.067 0.107 0.132 0.162 0.197l-0.236 1c-0.024 0.102 0.006 0.207 0.080 0.281s0.18 0.104 0.281 0.080l1-0.235c0.065 0.055 0.131 0.109 0.197 0.162l-0.036 1.027c-0.004 0.104 0.047 0.203 0.133 0.26s0.197 0.067 0.292 0.023l0.933-0.425c0.075 0.042 0.151 0.082 0.227 0.122l0.165 1.011c0.017 0.103 0.085 0.19 0.182 0.229s0.206 0.027 0.291-0.033l0.831-0.599c0.082 0.026 0.165 0.051 0.248 0.075l0.359 0.959c0.036 0.097 0.121 0.169 0.223 0.189s0.207-0.014 0.278-0.090l0.7-0.75c0.084 0.010 0.17 0.018 0.255 0.025l0.54 0.873c0.054 0.088 0.151 0.142 0.255 0.142s0.201-0.054 0.255-0.142l0.54-0.873c0.085-0.007 0.17-0.016 0.254-0.025l0.7 0.75c0.071 0.076 0.176 0.11 0.278 0.090s0.186-0.092 0.223-0.189l0.359-0.959c0.083-0.024 0.166-0.049 0.248-0.075l0.831 0.599c0.084 0.061 0.194 0.073 0.29 0.033s0.165-0.127 0.182-0.229l0.165-1.011c0.076-0.040 0.152-0.081 0.227-0.122l0.933 0.425c0.095 0.043 0.205 0.035 0.291-0.023s0.137-0.156 0.133-0.26l-0.036-1.027c0.066-0.053 0.132-0.107 0.197-0.162l1 0.235c0.101 0.024 0.208-0.006 0.281-0.080s0.104-0.18 0.080-0.281l-0.235-1c0.055-0.065 0.109-0.13 0.162-0.197l1.026 0.036c0.104 0.004 0.203-0.046 0.26-0.133s0.067-0.197 0.023-0.292l-0.425-0.932c0.041-0.075 0.082-0.151 0.122-0.227l1.011-0.165c0.103-0.016 0.189-0.085 0.229-0.182s0.027-0.206-0.034-0.29l-0.598-0.831c0.026-0.082 0.051-0.165 0.075-0.248l0.959-0.359c0.097-0.037 0.169-0.121 0.189-0.223 0.021-0.102-0.013-0.207-0.090-0.278l-0.75-0.7c0.009-0.085 0.017-0.169 0.025-0.254l0.873-0.54c0.088-0.054 0.142-0.151 0.142-0.255s-0.054-0.201-0.142-0.256zM17.895 23.272c-0.333-0.072-0.545-0.401-0.474-0.735s0.4-0.547 0.733-0.474c0.334 0.071 0.546 0.4 0.474 0.734s-0.4 0.546-0.733 0.475zM17.598 21.266c-0.304-0.065-0.603 0.128-0.668 0.433l-0.31 1.447c-0.957 0.434-2.018 0.675-3.137 0.675-1.144 0-2.229-0.253-3.203-0.706l-0.31-1.446c-0.065-0.304-0.364-0.498-0.668-0.433l-1.277 0.274c-0.237-0.244-0.457-0.504-0.66-0.778h6.213c0.070 0 0.117-0.013 0.117-0.077v-2.198c0-0.064-0.047-0.077-0.117-0.077h-1.817v-1.393h1.965c0.179 0 0.959 0.051 1.208 1.048 0.078 0.306 0.25 1.304 0.367 1.623 0.117 0.358 0.592 1.073 1.099 1.073h3.096c0.035 0 0.073-0.004 0.112-0.011-0.215 0.292-0.45 0.568-0.704 0.826l-1.306-0.281zM9.006 23.242c-0.333 0.072-0.662-0.141-0.733-0.475s0.141-0.663 0.474-0.735c0.333-0.071 0.662 0.141 0.733 0.475s-0.141 0.663-0.474 0.735zM6.649 13.685c0.138 0.312-0.002 0.678-0.314 0.816s-0.676-0.002-0.815-0.315c-0.138-0.312 0.002-0.677 0.314-0.816s0.676 0.002 0.815 0.315zM5.925 15.402l1.33-0.591c0.284-0.126 0.412-0.459 0.286-0.744l-0.274-0.62h1.077v4.856h-2.174c-0.189-0.663-0.29-1.362-0.29-2.085 0-0.276 0.015-0.549 0.043-0.817zM11.762 14.931v-1.431h2.566c0.133 0 0.936 0.153 0.936 0.754 0 0.499-0.616 0.677-1.123 0.677l-2.379 0zM21.085 16.219c0 0.19-0.007 0.378-0.021 0.564h-0.78c-0.078 0-0.11 0.051-0.11 0.128v0.358c0 0.843-0.476 1.027-0.892 1.073-0.397 0.045-0.837-0.166-0.891-0.409-0.234-1.316-0.624-1.597-1.24-2.083 0.765-0.485 1.56-1.201 1.56-2.16 0-1.035-0.71-1.687-1.193-2.006-0.679-0.447-1.43-0.537-1.632-0.537h-8.067c1.094-1.221 2.576-2.085 4.253-2.4l0.951 0.998c0.215 0.225 0.571 0.233 0.796 0.018l1.064-1.018c2.229 0.415 4.117 1.803 5.204 3.707l-0.728 1.645c-0.126 0.285 0.003 0.618 0.287 0.744l1.402 0.623c0.024 0.249 0.037 0.501 0.037 0.755zM13.024 7.899c0.246-0.236 0.637-0.227 0.873 0.020s0.226 0.639-0.021 0.874c-0.246 0.236-0.637 0.227-0.873-0.020s-0.226-0.638 0.021-0.874zM20.252 13.715c0.138-0.312 0.503-0.453 0.815-0.315s0.452 0.504 0.314 0.816c-0.138 0.312-0.503 0.453-0.815 0.315s-0.452-0.504-0.314-0.816z"></path>
</svg>
