<?xml version="1.0" encoding="utf-8"?>
<!-- Generated by IcoMoon.io -->
<!DOCTYPE svg PUBLIC "-//W3C//DTD SVG 1.1//EN" "http://www.w3.org/Graphics/SVG/1.1/DTD/svg11.dtd">
<svg version="1.1" xmlns="http://www.w3.org/2000/svg" xmlns:xlink="http://www.w3.org/1999/xlink" width="34" height="32" viewBox="0 0 34 32">
<path fill="#444444" d="M21.576 3.59c-1.115-0.994-2.465-0.595-3.798 0.588-0.198 0.176-0.395 0.371-0.591 0.579-2.279 2.418-4.395 6.897-5.053 10.318 0.256 0.519 0.456 1.182 0.588 1.688 0.034 0.13 0.064 0.252 0.089 0.355 0.058 0.245 0.089 0.405 0.089 0.405s-0.020-0.077-0.104-0.321c-0.016-0.047-0.034-0.098-0.055-0.158-0.009-0.025-0.021-0.055-0.035-0.087-0.149-0.346-0.56-1.075-0.741-1.393-0.155 0.457-0.292 0.884-0.406 1.271 0.523 0.956 0.841 2.595 0.841 2.595s-0.028-0.106-0.159-0.477c-0.117-0.328-0.697-1.345-0.835-1.583-0.235 0.869-0.329 1.455-0.244 1.598 0.164 0.277 0.32 0.754 0.457 1.282 0.309 1.189 0.524 2.637 0.524 2.637s0.007 0.096 0.019 0.244c-0.043 0.999-0.017 2.034 0.060 2.97 0.103 1.239 0.295 2.303 0.541 2.873l0.167-0.091c-0.361-1.122-0.508-2.593-0.444-4.289 0.097-2.593 0.694-5.719 1.796-8.978 1.863-4.919 4.447-8.866 6.811-10.751-2.155 1.947-5.073 8.248-5.946 10.581-0.978 2.613-1.671 5.065-2.088 7.414 0.721-2.202 3.050-3.149 3.050-3.149s1.143-1.409 2.478-3.422c-0.8 0.182-2.113 0.495-2.553 0.68-0.649 0.272-0.824 0.365-0.824 0.365s2.102-1.28 3.905-1.86c2.48-3.906 5.182-9.456 2.461-11.884z"></path>
</svg>
