<?xml version="1.0" encoding="UTF-8"?>
<svg xmlns="http://www.w3.org/2000/svg"
    xmlns:xlink="http://www.w3.org/1999/xlink" width="32" height="32" viewBox="0 0 32 32" version="1.1">
    <g>
        <path fill="#444444" style="stroke:none;fill-rule:nonzero;fill-opacity:1;" d="M 4 4 L 28 4 L 28 28 L 4 28 Z M 4 4 "/>
        <path style=" stroke:none;fill-rule:nonzero;fill:rgb(100%,100%,100%);fill-opacity:1;" d="M 18.328125 14.667969 L 9.484375 14.667969 L 9.484375 16.84375 L 12.65625 16.84375 L 12.65625 26.667969 L 15.167969 26.667969 L 15.167969 16.84375 L 18.328125 16.84375 Z M 18.328125 14.667969 "/>
        <path style=" stroke:none;fill-rule:nonzero;fill:rgb(100%,100%,100%);fill-opacity:1;" d="M 26.128906 17.390625 C 26.128906 17.390625 24.9375 16.59375 23.589844 16.59375 C 22.246094 16.59375 21.761719 17.234375 21.761719 17.917969 C 21.761719 19.683594 26.679688 19.507812 26.679688 23.058594 C 26.679688 28.53125 19.179688 26.105469 19.179688 26.105469 L 19.179688 23.480469 C 19.179688 23.480469 20.613281 24.5625 22.332031 24.5625 C 24.054688 24.5625 23.988281 23.4375 23.988281 23.28125 C 23.988281 21.648438 19.113281 21.648438 19.113281 18.03125 C 19.113281 13.109375 26.21875 15.050781 26.21875 15.050781 Z M 26.128906 17.390625 "/>
    </g>
</svg>
